<svg xmlns="http://www.w3.org/2000/svg" viewBox="0 0 15 15">
    <path d="M3.6584 0.211497L3.9194 1.01475C4.00034 1.25906 4.13732 1.48106 4.31938 1.66299C4.50143 1.84491 4.72353 1.98173 4.9679 2.0625L5.7719 2.3235L5.7884 2.328C5.85035 2.34981 5.90401 2.3903 5.94197 2.44391C5.97992 2.49751 6.00031 2.56157 6.00031 2.62725C6.00031 2.69293 5.97992 2.75699 5.94197 2.81059C5.90401 2.86419 5.85035 2.90469 5.7884 2.9265L4.9844 3.1875C4.73989 3.26816 4.51764 3.40493 4.33545 3.58687C4.15326 3.7688 4.01617 3.99085 3.93515 4.23525L3.6749 5.03775C3.65309 5.0997 3.61259 5.15336 3.55899 5.19131C3.50539 5.22927 3.44133 5.24965 3.37565 5.24965C3.30997 5.24965 3.24591 5.22927 3.19231 5.19131C3.13871 5.15336 3.09821 5.0997 3.0764 5.03775L2.8154 4.23525C2.73499 3.99002 2.59817 3.76707 2.41594 3.58432C2.23371 3.40157 2.01115 3.26411 1.76615 3.183L0.962152 2.922C0.900199 2.90019 0.846542 2.85969 0.808585 2.80609C0.770629 2.75249 0.750244 2.68843 0.750244 2.62275C0.750244 2.55707 0.770629 2.49301 0.808585 2.43941C0.846542 2.3858 0.900199 2.34531 0.962152 2.3235L1.76615 2.0625C2.00761 1.97965 2.22656 1.8419 2.40576 1.66009C2.58497 1.47829 2.71954 1.25738 2.7989 1.01475L3.0599 0.212247C3.08155 0.150033 3.12203 0.0961019 3.17572 0.0579373C3.22941 0.0197727 3.29365 -0.000732422 3.35953 -0.000732422C3.4254 -0.000732422 3.48964 0.0197727 3.54333 0.0579373C3.59702 0.0961019 3.6375 0.150033 3.65915 0.212247M7.3379 6.1605L6.7634 5.9745C6.58908 5.91622 6.4307 5.81818 6.30079 5.68814C6.17088 5.55811 6.07301 5.39963 6.0149 5.22525L5.8274 4.65225C5.81187 4.60795 5.78296 4.56956 5.74467 4.54241C5.70638 4.51525 5.6606 4.50067 5.61365 4.50067C5.56671 4.50067 5.52092 4.51525 5.48263 4.54241C5.44434 4.56956 5.41543 4.60795 5.3999 4.65225L5.2139 5.22525C5.15686 5.39851 5.06058 5.55627 4.93257 5.68623C4.80457 5.81618 4.64828 5.91484 4.4759 5.9745L3.90215 6.1605C3.85785 6.17602 3.81947 6.20493 3.79231 6.24323C3.76516 6.28152 3.75057 6.3273 3.75057 6.37425C3.75057 6.42119 3.76516 6.46697 3.79231 6.50527C3.81947 6.54356 3.85785 6.57247 3.90215 6.588L4.4759 6.77475C4.65075 6.83305 4.80958 6.93134 4.93978 7.0618C5.06997 7.19226 5.16794 7.35129 5.2259 7.52625L5.4119 8.09925C5.42743 8.14355 5.45634 8.18193 5.49463 8.20908C5.53292 8.23624 5.57871 8.25083 5.62565 8.25083C5.6726 8.25083 5.71838 8.23624 5.75667 8.20908C5.79496 8.18193 5.82387 8.14355 5.8394 8.09925L6.02615 7.52625C6.08433 7.35178 6.18232 7.19326 6.31237 7.06321C6.44241 6.93317 6.60094 6.83518 6.7754 6.777L7.34915 6.591C7.39345 6.57547 7.43183 6.54656 7.45899 6.50827C7.48614 6.46997 7.50073 6.42419 7.50073 6.37725C7.50073 6.3303 7.48614 6.28452 7.45899 6.24623C7.43183 6.20793 7.39345 6.17902 7.34915 6.1635L7.3379 6.1605ZM4.5119 7.761L4.66715 8.23875L3.18965 9.71625C3.04492 9.86145 2.94451 10.0448 2.90015 10.245L2.3699 12.6315L4.73915 12.105C4.95065 12.0577 5.14415 11.9512 5.29715 11.7982L12.3157 4.77975C12.5841 4.50009 12.7323 4.12633 12.7283 3.73869C12.7243 3.35105 12.5685 2.98042 12.2943 2.70635C12.0201 2.43228 11.6495 2.27662 11.2618 2.27277C10.8742 2.26891 10.5005 2.41718 10.2209 2.68575L7.47365 5.4315L6.9959 5.274C6.93215 5.25049 6.87356 5.21483 6.8234 5.169C6.79669 5.14562 6.77435 5.11768 6.7574 5.0865L9.6899 2.154C10.11 1.7436 10.6749 1.51536 11.2621 1.51878C11.8494 1.5222 12.4116 1.75701 12.8269 2.17226C13.2421 2.58752 13.4769 3.14975 13.4804 3.737C13.4838 4.32426 13.2555 4.88918 12.8452 5.30925L12.3427 5.81175L12.5947 6.0645C12.8759 6.34579 13.0338 6.72725 13.0338 7.125C13.0338 7.52274 12.8759 7.9042 12.5947 8.1855L11.8897 8.8905C11.8192 8.96081 11.7238 9.00028 11.6243 9.00021C11.5247 9.00014 11.4293 8.96054 11.359 8.89012C11.2887 8.81971 11.2492 8.72424 11.2493 8.62473C11.2494 8.52522 11.289 8.42981 11.3594 8.3595L12.0644 7.65525C12.205 7.5146 12.284 7.32387 12.284 7.125C12.284 6.92612 12.205 6.73539 12.0644 6.59475L11.8124 6.34275L5.8274 12.3277C5.57378 12.5825 5.25227 12.759 4.90115 12.8362L1.95665 13.491C1.89509 13.5047 1.83106 13.5027 1.77048 13.4851C1.70991 13.4675 1.65475 13.4349 1.61011 13.3904C1.56547 13.3458 1.53279 13.2907 1.5151 13.2302C1.49741 13.1696 1.49528 13.1056 1.5089 13.044L2.1674 10.0815C2.2424 9.74175 2.4134 9.43125 2.65865 9.18525L4.31765 7.527C4.40718 7.58004 4.47556 7.66246 4.51115 7.76025" fill="black"/>
</svg>