<svg xmlns="http://www.w3.org/2000/svg" viewBox="0 0 14 13">
  <path d="M7 12.125C5.81331 12.125 4.65327 11.7951 3.66658 11.177C2.67988 10.5589 1.91085 9.68043 1.45672 8.6526C1.0026 7.62476 0.883775 6.49376 1.11529 5.40262C1.3468 4.31148 1.91824 3.3092 2.75736 2.52253C3.59647 1.73586 4.66557 1.20013 5.82946 0.983085C6.99334 0.766043 8.19974 0.877437 9.2961 1.30318C10.3925 1.72892 11.3295 2.44989 11.9888 3.37492C12.6481 4.29995 13 5.38748 13 6.5C13 7.43 12.76 8.30625 12.3333 9.07938L13 12.125L9.75133 11.5C8.92733 11.8994 7.99133 12.125 7 12.125Z" stroke="#7E7E7E" stroke-linecap="round" stroke-linejoin="round" fill="none"/>
</svg>
