<svg xmlns="http://www.w3.org/2000/svg" viewBox="0 0 28 29">
    <path d="M12.6001 21.85C12.6001 21.3858 12.7845 20.9407 13.1127 20.6125C13.4408 20.2843 13.886 20.1 14.3501 20.1C14.8142 20.1 15.2593 20.2843 15.5875 20.6125C15.9157 20.9407 16.1001 21.3858 16.1001 21.85C16.1001 22.3141 15.9157 22.7592 15.5875 23.0874C15.2593 23.4156 14.8142 23.6 14.3501 23.6C13.886 23.6 13.4408 23.4156 13.1127 23.0874C12.7845 22.7592 12.6001 22.3141 12.6001 21.85ZM12.6001 14.85C12.6001 14.3858 12.7845 13.9407 13.1127 13.6125C13.4408 13.2843 13.886 13.1 14.3501 13.1C14.8142 13.1 15.2593 13.2843 15.5875 13.6125C15.9157 13.9407 16.1001 14.3858 16.1001 14.85C16.1001 15.3141 15.9157 15.7592 15.5875 16.0874C15.2593 16.4156 14.8142 16.6 14.3501 16.6C13.886 16.6 13.4408 16.4156 13.1127 16.0874C12.7845 15.7592 12.6001 15.3141 12.6001 14.85ZM12.6001 7.84998C12.6001 7.38585 12.7845 6.94073 13.1127 6.61254C13.4408 6.28435 13.886 6.09998 14.3501 6.09998C14.8142 6.09998 15.2593 6.28435 15.5875 6.61254C15.9157 6.94073 16.1001 7.38585 16.1001 7.84998C16.1001 8.3141 15.9157 8.75922 15.5875 9.08741C15.2593 9.4156 14.8142 9.59998 14.3501 9.59998C13.886 9.59998 13.4408 9.4156 13.1127 9.08741C12.7845 8.75922 12.6001 8.3141 12.6001 7.84998Z" fill="#333333"/>
</svg>
