<svg xmlns="http://www.w3.org/2000/svg" viewBox="0 0 15 14">
    <path d="M9.77107 0.127805L14.3246 4.52959C14.3687 4.57207 14.4038 4.62299 14.4277 4.67933C14.4517 4.73566 14.464 4.79624 14.464 4.85745C14.464 4.91866 14.4517 4.97924 14.4277 5.03557C14.4038 5.0919 14.3687 5.14283 14.3246 5.1853L9.77107 9.58709C9.72945 9.62811 9.68013 9.66049 9.62595 9.68237C9.57176 9.70425 9.51379 9.7152 9.45536 9.71459C9.33459 9.71459 9.21877 9.66662 9.13337 9.58122C9.04797 9.49582 9 9.38 9 9.25923V6.98852C4.93214 7.15245 3.22 9.42923 3.14714 9.52638C3.08918 9.60267 3.00917 9.65931 2.91795 9.68863C2.82673 9.71795 2.72871 9.71854 2.63714 9.6903C2.54581 9.66088 2.46611 9.60336 2.40941 9.52594C2.35272 9.44853 2.32192 9.35519 2.32143 9.25923C2.32143 4.38995 6.3225 2.89638 9 2.74459V0.455662C9.0002 0.366108 9.0268 0.2786 9.07648 0.204086C9.12615 0.129572 9.1967 0.0713607 9.27929 0.0367332C9.36106 0.00146734 9.45146 -0.00870371 9.53902 0.00751142C9.62658 0.0237265 9.70735 0.0655965 9.77107 0.127805ZM9.91071 6.52709V8.17245L13.3532 4.85745L9.91071 1.5303V3.1878C9.90914 3.30808 9.86066 3.42299 9.7756 3.50805C9.69055 3.59311 9.57564 3.64159 9.45536 3.64316C8.86643 3.64316 4.08214 3.77673 3.32929 8.06316C5.07544 6.70309 7.24324 5.99839 9.45536 6.07173C9.57564 6.07331 9.69055 6.12179 9.7756 6.20684C9.86066 6.2919 9.90914 6.40681 9.91071 6.52709ZM12.4747 9.84998C12.5596 9.76489 12.6744 9.71631 12.7946 9.71459C12.9149 9.71616 13.0298 9.76464 13.1149 9.8497C13.1999 9.93476 13.2484 10.0497 13.25 10.1699V10.4735C13.25 11.2384 12.9462 11.9719 12.4053 12.5128C11.8645 13.0536 11.1309 13.3574 10.3661 13.3574H3.38393C2.61906 13.3574 1.88552 13.0536 1.34468 12.5128C0.803842 11.9719 0.5 11.2384 0.5 10.4735V3.49138C0.5 2.72651 0.803842 1.99297 1.34468 1.45213C1.88552 0.911289 2.61906 0.607448 3.38393 0.607448H6.11607C6.23684 0.607448 6.35266 0.655423 6.43806 0.740819C6.52345 0.826215 6.57143 0.942036 6.57143 1.0628C6.57143 1.18357 6.52345 1.29939 6.43806 1.38479C6.35266 1.47019 6.23684 1.51816 6.11607 1.51816H3.38393C2.86109 1.51976 2.36013 1.72817 1.99042 2.09787C1.62072 2.46757 1.41232 2.96854 1.41071 3.49138V10.4735C1.41232 10.9964 1.62072 11.4973 1.99042 11.867C2.36013 12.2367 2.86109 12.4451 3.38393 12.4467H10.3661C10.8889 12.4451 11.3899 12.2367 11.7596 11.867C12.1293 11.4973 12.3377 10.9964 12.3393 10.4735V10.1699C12.341 10.0497 12.3896 9.93493 12.4747 9.84998Z" fill="#333333"/>
</svg>