<svg xmlns="http://www.w3.org/2000/svg" viewBox="0 0 54 54">
  <path d="M54 27C54 41.3594 41.3594 54 27 54C12.6406 54 0 41.3594 0 27C0 12.6406 12.6406 0 27 0C41.3594 0 54 12.6406 54 27Z" fill="#7E7E7E"/>
  <path d="M41 46C37.5 48.5 33 50 27 50C21 50 16.5 48.5 13 46C11.5 45 10.5 42.5 11.5 40.5C13.5 36.5 17.5 34 27 34C36.5 34 40.5 36.5 42.5 40.5C43.5 42.5 42.5 45 41 46ZM27 28C29.5 28 31.5 27 33 25.5C34.5 24 35.5 22 35.5 19.5C35.5 17 34.5 15 33 13.5C31.5 12 29.5 11 27 11C24.5 11 22.5 12 21 13.5C19.5 15 18.5 17 18.5 19.5C18.5 22 19.5 24 21 25.5C22.5 27 24.5 28 27 28Z" fill="white"/>
</svg>
