<svg xmlns="http://www.w3.org/2000/svg" viewBox="0 0 12 17">
    <path d="M10.1956 4.23652L1.10317 0.65394C0.828167 0.545606 0.690667 0.49144 0.595333 0.57269C0.5 0.65394 0.5 0.825106 0.5 1.16852V9.08336L10.1956 5.26352C10.7346 5.05119 11.0041 4.94502 11.0041 4.75002C11.0041 4.55502 10.7346 4.44886 10.1956 4.23652Z" fill="#FFAD6F"/>
    <path d="M0.5 9.08336V1.16852C0.5 0.825106 0.5 0.65394 0.595333 0.57269C0.690667 0.49144 0.828167 0.545606 1.10317 0.65394L10.1956 4.23652C10.7346 4.44886 11.0041 4.55502 11.0041 4.75002C11.0041 4.94502 10.7346 5.05119 10.1956 5.26352L0.5 9.08336ZM0.5 9.08336V15.5834" stroke="#333333" stroke-linecap="round"/>
</svg>