<svg xmlns="http://www.w3.org/2000/svg" viewBox="0 0 101 101">
  <path fill-rule="evenodd" clip-rule="evenodd" d="M74.1004 88.375L63.689 32.8671L16.8334 37.1259V74.9083C16.8334 79.6217 16.8334 81.9783 17.7508 83.7795C18.5577 85.3631 19.8452 86.6506 21.4289 87.4576C23.23 88.375 25.5867 88.375 30.3 88.375H74.1004ZM56.8125 63.2512C56.8125 72.3328 47.8067 78.7127 43.8803 81.0651C43.3375 81.3908 42.7164 81.5628 42.0834 81.5628C41.4504 81.5628 40.8292 81.3908 40.2864 81.0651C36.36 78.7127 27.3542 72.3328 27.3542 63.247C27.3542 54.338 34.4915 48.3958 42.0834 48.3958C49.9403 48.3958 56.8125 54.338 56.8125 63.2512Z" fill="#0484FC"/>
  <path d="M17.7508 17.2205C16.8334 19.0217 16.8334 21.3783 16.8334 26.0917V28.6756L92.5413 21.7907C92.4613 19.7371 92.2467 18.3652 91.666 17.2205C90.859 15.6369 89.5715 14.3493 87.9879 13.5424C86.1867 12.625 83.83 12.625 79.1167 12.625H30.3C25.5867 12.625 23.23 12.625 21.4289 13.5424C19.8452 14.3493 18.5577 15.6369 17.7508 17.2205ZM92.5834 30.2411L72.1098 32.1012L82.6559 88.354C85.1473 88.2992 86.7085 88.1099 87.9879 87.4576C89.5715 86.6507 90.859 85.3631 91.666 83.7795C92.5834 81.9783 92.5834 79.6217 92.5834 74.9083V30.2411Z" fill="#0484FC" fill-opacity="0.25"/>
  <path d="M42.0833 67.3333C44.4075 67.3333 46.2917 65.4492 46.2917 63.125C46.2917 60.8008 44.4075 58.9166 42.0833 58.9166C39.7591 58.9166 37.875 60.8008 37.875 63.125C37.875 65.4492 39.7591 67.3333 42.0833 67.3333Z" fill="#0484FC"/>
</svg>
