<svg xmlns="http://www.w3.org/2000/svg" viewBox="0 0 23 22">
  <path d="M0 7.23722C0 12.342 4.13434 17.3625 10.6543 21.6764C10.9093 21.8318 11.2566 22 11.4998 22C11.7429 22 12.0902 21.8323 12.3338 21.6764C18.8652 17.3625 23 12.342 23 7.23773C23 2.99591 20.1855 0 16.4331 0C14.2792 0 12.5419 1.0547 11.4998 2.67229C10.4572 1.06697 8.70894 0 6.56642 0C2.81404 0 0 2.9954 0 7.23722ZM1.86384 7.23773C1.86384 4.05061 3.85565 1.92996 6.5427 1.92996C8.71981 1.92996 9.95907 3.3318 10.7116 4.53016C11.0244 5.0092 11.2216 5.14111 11.4993 5.14111C11.777 5.14111 11.9509 4.99744 12.2869 4.53016C13.074 3.35583 14.2901 1.92996 16.4558 1.92996C19.1429 1.92996 21.1347 4.05061 21.1347 7.23824C21.1347 11.6953 16.5833 16.5005 11.731 19.8313C11.6149 19.9151 11.5457 19.9755 11.4993 19.9755C11.4528 19.9755 11.3718 19.9156 11.2562 19.8313C6.41522 16.5 1.86384 11.6953 1.86384 7.23773Z" fill="#333333"/>
</svg>
