<svg xmlns="http://www.w3.org/2000/svg" viewBox="0 0 14 12">
  <path d="M12.6059 11.7968H0.784008C0.64698 11.7963 0.51243 11.7602 0.393655 11.6919C0.274879 11.6235 0.17599 11.5254 0.106758 11.4071C0.0372371 11.2887 0.000398505 11.1539 3.21503e-06 11.0165C-0.000392075 10.8791 0.0356701 10.7441 0.104508 10.6253L6.01901 0.390377C6.08712 0.271494 6.18548 0.172755 6.3041 0.104191C6.42272 0.0356263 6.55737 -0.000320412 6.69438 2.15188e-06C6.97301 2.15188e-06 7.23251 0.149627 7.37126 0.390752L13.2696 10.5998C13.3436 10.7182 13.3845 10.8543 13.3881 10.9939C13.3917 11.1335 13.3579 11.2715 13.2902 11.3937C13.2224 11.5158 13.1233 11.6176 13.0029 11.6884C12.8826 11.7593 12.7455 11.7967 12.6059 11.7968ZM6.67451 0.765377H6.66813L0.754758 10.9988L0.784008 11.0471H12.6059C12.6224 11.0471 12.6385 11.031 12.6385 11.0149C12.6359 11.0108 12.6228 10.9789 12.6201 10.9748L6.72138 0.765377H6.67451Z" fill="black"/>
  <path d="M6.33008 4.22925V7.49212C6.33469 7.60192 6.38155 7.70568 6.46086 7.78173C6.54018 7.85779 6.64581 7.90025 6.7557 7.90025C6.86559 7.90025 6.97123 7.85779 7.05055 7.78173C7.12986 7.70568 7.17672 7.60192 7.18133 7.49212V4.22925C7.18123 4.11626 7.1364 4.0079 7.05665 3.92786C6.97689 3.84783 6.86869 3.80262 6.7557 3.80212C6.52208 3.80212 6.33008 3.9945 6.33008 4.22925ZM6.75608 8.4855C6.52208 8.4855 6.33045 8.67525 6.33045 8.91V9.19537C6.33124 9.30791 6.37637 9.4156 6.45605 9.49507C6.53574 9.57454 6.64354 9.61938 6.75608 9.61987C6.99083 9.61987 7.1817 9.4275 7.1817 9.19537V8.91C7.1817 8.67525 6.99045 8.4855 6.75608 8.4855Z" fill="black"/>
</svg>
