    <svg xmlns="http://www.w3.org/2000/svg" viewBox="0 0 13 15">
      <path d="M2.66401 14.5C2.27492 14.5 1.94213 14.3615 1.66563 14.0844C1.38913 13.8073 1.25059 13.4751 1.25001 13.0878V2.25004H0.812506C0.688256 2.25004 0.584423 2.20804 0.501006 2.12404C0.417589 2.04004 0.375589 1.93592 0.375006 1.81167C0.374423 1.68742 0.416423 1.58359 0.501006 1.50017C0.585589 1.41675 0.689423 1.37504 0.812506 1.37504H3.87501C3.87501 1.19421 3.94209 1.03671 4.07626 0.902544C4.21042 0.768377 4.36792 0.701294 4.54876 0.701294H8.45126C8.63209 0.701294 8.78959 0.768377 8.92376 0.902544C9.05792 1.03671 9.12501 1.19421 9.12501 1.37504H12.1875C12.3118 1.37504 12.4156 1.41704 12.499 1.50104C12.5824 1.58504 12.6244 1.68917 12.625 1.81342C12.6256 1.93767 12.5836 2.0415 12.499 2.12492C12.4144 2.20834 12.3106 2.25004 12.1875 2.25004H11.75V13.0869C11.75 13.4754 11.6115 13.8079 11.3344 14.0844C11.0573 14.3609 10.7248 14.4995 10.3369 14.5H2.66401ZM10.875 2.25004H2.12501V13.0869C2.12501 13.2438 2.17546 13.3728 2.27638 13.4737C2.3773 13.5746 2.50651 13.625 2.66401 13.625H10.3369C10.4938 13.625 10.6227 13.5746 10.7236 13.4737C10.8245 13.3728 10.875 13.2438 10.875 13.0869V2.25004ZM5.01951 11.875C5.14376 11.875 5.24788 11.833 5.33188 11.749C5.41588 11.665 5.45759 11.5612 5.45701 11.4375V4.43754C5.45701 4.31329 5.41501 4.20946 5.33101 4.12604C5.24701 4.04263 5.14288 4.00063 5.01863 4.00004C4.89438 3.99946 4.79055 4.04146 4.70713 4.12604C4.62371 4.21063 4.58201 4.31446 4.58201 4.43754V11.4375C4.58201 11.5618 4.62401 11.6656 4.70801 11.749C4.79201 11.833 4.89584 11.875 5.01951 11.875ZM7.98138 11.875C8.10563 11.875 8.20946 11.833 8.29288 11.749C8.3763 11.665 8.41801 11.5612 8.41801 11.4375V4.43754C8.41801 4.31329 8.37601 4.20946 8.29201 4.12604C8.20801 4.04204 8.10417 4.00004 7.98051 4.00004C7.85626 4.00004 7.75213 4.04204 7.66813 4.12604C7.58413 4.21004 7.54242 4.31388 7.54301 4.43754V11.4375C7.54301 11.5618 7.58501 11.6656 7.66901 11.749C7.75301 11.8325 7.85713 11.8745 7.98138 11.875Z" fill="black"/>
    </svg>