<svg xmlns="http://www.w3.org/2000/svg" viewBox="0 0 24 24">
    <path fill-rule="evenodd" clip-rule="evenodd" d="M3.52087 23.8333C3.52087 23.6179 3.60648 23.4112 3.75885 23.2588C3.91122 23.1064 4.11789 23.0208 4.33337 23.0208H21.6667C21.8822 23.0208 22.0889 23.1064 22.2412 23.2588C22.3936 23.4112 22.4792 23.6179 22.4792 23.8333C22.4792 24.0488 22.3936 24.2555 22.2412 24.4079C22.0889 24.5602 21.8822 24.6458 21.6667 24.6458H4.33337C4.11789 24.6458 3.91122 24.5602 3.75885 24.4079C3.60648 24.2555 3.52087 24.0488 3.52087 23.8333Z" fill="#0484FC"/>
    <path d="M12.4801 16.1731L18.8901 9.763C17.8112 9.31362 16.8316 8.65575 16.0074 7.82709C15.1782 7.00266 14.52 6.02264 14.0704 4.94325L7.65923 11.3533C7.15873 11.8538 6.90848 12.103 6.69398 12.3793C6.43988 12.7043 6.22227 13.0564 6.04506 13.429C5.89448 13.7443 5.78289 14.0801 5.55864 14.7507L4.37998 18.2899C4.32589 18.4518 4.31798 18.6256 4.35715 18.7918C4.39631 18.9579 4.481 19.1099 4.60171 19.2306C4.72242 19.3513 4.87438 19.436 5.04054 19.4752C5.2067 19.5143 5.38048 19.5064 5.54239 19.4523L9.08056 18.2737C9.75223 18.0494 10.0881 17.9378 10.4033 17.7862C10.7774 17.6085 11.1273 17.3926 11.4531 17.1383C11.7293 16.9228 11.9785 16.6725 12.479 16.1731M20.669 7.98417C20.9854 7.66763 21.2365 7.29185 21.4077 6.8783C21.579 6.46475 21.6671 6.02152 21.667 5.57391C21.667 5.12631 21.5788 4.68309 21.4074 4.26958C21.2361 3.85606 20.985 3.48035 20.6684 3.16388C20.3519 2.84741 19.9761 2.59638 19.5626 2.42514C19.149 2.25389 18.7058 2.16578 18.2582 2.16583C17.8106 2.16588 17.3674 2.2541 16.9538 2.42543C16.5403 2.59677 16.1646 2.84788 15.8481 3.16442L15.079 3.93359L15.1126 4.03109C15.3942 4.8425 15.9261 5.90742 16.9261 6.90734C17.7601 7.74628 18.7789 8.37846 19.9009 8.75333L20.669 7.98417Z" fill="#0484FC"/>
</svg>