<svg xmlns="http://www.w3.org/2000/svg"  viewBox="0 0 343 122">
    <path d="M236.597 104.927L254.737 106.319C255.487 106.32 256.226 106.145 256.895 105.808C257.565 105.471 258.145 104.981 258.591 104.379L263.062 98.3316C263.85 97.2488 264.159 95.8848 263.892 94.577L263.182 90.9727L261.544 89.7957L261.073 85.9988L262.051 85.2352L262.008 85.0145C261.783 83.8613 261.15 82.8348 260.208 82.1316L254.878 77.3926L251.531 71.2051L247.453 70.9801L240.337 68.3926L230.972 78.2926L228.708 83.3691L228.342 84.1848L226.008 88.502C225.769 88.9238 226.036 92.8332 225.952 93.3113C225.952 93.3113 235.725 104.927 236.597 104.927Z" 
    fill="#9B9B9B"/>
    <path d="M250.125 78.208L244.43 93.8736L258.084 97.6705L263.189 90.9627L262.05 85.2393L250.125 78.208Z" 
    fill="#E6E6E6"/>
    <path d="M225.53 89.8662L224.812 95.0834H229.031L230.142 90.6818C230.325 89.8943 230.817 89.2334 231.506 88.8115L237.469 85.2396L233.18 75.874L231.239 77.9975C231.056 78.1943 230.916 78.4193 230.803 78.6725L228.342 84.199L226.008 88.5162C225.769 88.9381 225.614 89.3881 225.53 89.8662Z" 
    fill="#636363"/>
    <path d="M238.186 92.988L244.5 99.302L258.084 97.6708L247.566 92.8895C246.637 92.4677 246.159 91.413 246.455 90.4286L250.125 78.2083L251.531 71.2052C250.35 69.3208 249.802 68.7864 247.777 68.1255C246.427 67.6473 245.259 67.2395 245.259 67.2395C245.259 67.2395 244.5 66.9161 243.684 66.8317C242.658 66.7473 241.997 66.9302 241.125 67.5911L237.469 85.2395V91.2583C237.469 91.9052 237.722 92.5239 238.186 92.988Z" 
    fill="#D3D3D3"/>
    <path d="M224.812 95.083H229.031L244.5 99.3018V106.319L238.523 106.333C236.906 106.333 235.317 105.967 233.869 105.236L231.942 104.28C230.946 103.785 230.039 103.129 229.256 102.339L227.948 101.031C226.808 99.8963 225.951 98.509 225.445 96.9814L224.812 95.083Z" 
    fill="#636363"/>
    <path d="M263.159 96.2222C263.328 97.1504 263.075 98.1066 262.442 98.8238L256.859 105.18C256.283 105.841 255.214 106.319 254.342 106.333H243.5V99.3019L257.084 97.6707L262.175 90.9629L263.159 96.2222ZM245.623 70.2347L244.062 68.0269C243.837 67.7094 243.545 67.4454 243.207 67.2537C242.868 67.062 242.491 66.9473 242.103 66.9178C241.715 66.8883 241.325 66.9446 240.962 67.0828C240.598 67.2211 240.269 67.4378 239.998 67.7176L230.492 77.6176C229.578 78.5738 229.747 80.1347 230.844 80.866L236.469 85.2394L242.98 79.3191C243.753 78.616 244.316 77.716 244.611 76.7035L245.947 72.1332C246.13 71.4863 246.017 70.7832 245.623 70.2347Z" 
    fill="#9B9B9B"/>
    <path d="M143.685 68.7964C144.125 68.797 144.56 68.7001 144.958 68.5127C145.356 68.3252 145.708 68.052 145.988 67.7124C149.275 63.7324 153.961 60.7961 159.182 59.4443C164.447 58.0811 169.919 58.434 174.589 60.438C176.103 61.0875 177.858 60.387 178.508 58.8724C179.157 57.3579 178.457 55.6037 176.942 54.9539C164.896 49.7849 149.943 53.5526 141.387 63.9123C140.337 65.1829 140.517 67.0636 141.787 68.113C142.321 68.5552 142.992 68.7969 143.685 68.7964ZM73.3026 63.787C72.2689 62.5036 72.4715 60.6255 73.7546 59.5918C84.2187 51.1633 99.6241 50.4788 110.385 57.9639C111.738 58.9049 112.071 60.7644 111.13 62.1171C110.189 63.4701 108.329 63.8037 106.977 62.8627C102.805 59.9609 97.516 58.5155 92.0851 58.7921C86.6985 59.0666 81.5178 61.0013 77.4978 64.239C76.9685 64.6667 76.3085 64.8998 75.628 64.8993C74.7561 64.8993 73.8919 64.519 73.3026 63.787Z" 
    fill="#76DFFF"/>
    <path d="M91.8478 81.032L113.746 52.0625L107.902 39.5949C107.256 38.2169 107.849 36.5766 109.227 35.9308C110.605 35.2851 112.245 35.8787 112.891 37.2562L118.456 49.1278L143.055 46.7762L145.534 38.3701C145.676 37.8916 145.944 37.4603 146.311 37.122L154.776 29.3324C155.896 28.302 157.639 28.3742 158.669 29.4939C159.699 30.6136 159.627 32.3566 158.507 33.3869L150.604 40.6602L148.161 48.945L167.994 81.2519C168.79 82.5487 168.384 84.2452 167.087 85.0415C166.779 85.231 166.436 85.3579 166.079 85.4149C165.722 85.4719 165.357 85.4579 165.005 85.3736C164.653 85.2894 164.321 85.1367 164.028 84.9241C163.735 84.7116 163.487 84.4434 163.298 84.1349L145.035 54.3855L130.809 74.9706L133.59 81.4192C133.599 81.4404 133.605 81.4626 133.614 81.484C133.654 81.5836 133.688 81.6853 133.717 81.7888C133.738 81.8674 133.756 81.9464 133.77 82.0256C133.774 82.0485 133.78 82.0711 133.783 82.0943C133.815 82.3017 133.823 82.512 133.806 82.7212C133.804 82.7481 133.8 82.775 133.797 82.8019C133.79 82.8779 133.778 82.9533 133.764 83.0281C133.758 83.0603 133.751 83.0924 133.744 83.1243C133.727 83.1998 133.706 83.2743 133.682 83.3478C133.674 83.3731 133.668 83.3986 133.659 83.4236C133.625 83.5207 133.586 83.6156 133.541 83.7084C133.532 83.726 133.522 83.7427 133.513 83.7601C133.474 83.8371 133.432 83.9123 133.385 83.9855C133.378 83.9964 133.373 84.0081 133.366 84.0191C133.357 84.0327 133.346 84.0446 133.337 84.0582C133.291 84.1263 133.242 84.1924 133.189 84.2564C133.174 84.275 133.159 84.2943 133.143 84.3124C133.005 84.4726 132.849 84.6162 132.677 84.7404C132.656 84.7556 132.634 84.7692 132.612 84.7837C132.55 84.8268 132.485 84.8674 132.417 84.9057C132.384 84.924 132.351 84.9417 132.318 84.9589C132.288 84.9741 132.26 84.9913 132.23 85.0056C132.201 85.0191 132.171 85.0284 132.142 85.0411C132.099 85.0593 132.057 85.0765 132.014 85.0925C131.951 85.1159 131.888 85.1357 131.824 85.1543C131.786 85.1652 131.749 85.1767 131.711 85.186C131.635 85.2045 131.559 85.2184 131.482 85.2303C131.453 85.2348 131.425 85.2408 131.396 85.2443C131.285 85.2582 131.173 85.2667 131.062 85.2667L131.046 85.2662L94.0586 85.449H94.0448C93.0023 85.449 92.0482 84.8602 91.5812 83.9273C91.3514 83.4678 91.2547 82.9533 91.3018 82.4417C91.3489 81.9301 91.538 81.4418 91.8478 81.032ZM139.537 52.6482L120.939 54.426L127.959 69.4024L139.537 52.6482ZM126.736 79.7767L116.39 57.7028L99.6029 79.9106L126.736 79.7767Z" 
    fill="#00B1FF"/>
    <path d="M165.646 57.4979C179.561 57.4979 190.842 68.7786 190.842 82.6938C190.842 96.6089 179.561 107.89 165.646 107.89C151.731 107.89 140.45 96.6091 140.45 82.6938C140.45 68.7784 151.731 57.4979 165.646 57.4979ZM165.646 64.46C155.592 64.46 147.412 72.6397 147.412 82.694C147.412 92.7483 155.592 100.928 165.646 100.928C175.7 100.928 183.88 92.7483 183.88 82.694C183.88 72.6397 175.7 64.46 165.646 64.46ZM94.0455 57.4979C107.961 57.4979 119.241 68.7786 119.241 82.6938C119.241 96.6089 107.961 107.89 94.0455 107.89C80.1301 107.89 68.8497 96.6091 68.8497 82.6938C68.8497 68.7784 80.1301 57.4979 94.0455 57.4979ZM94.0455 64.46C83.9912 64.46 75.8115 72.6397 75.8115 82.694C75.8115 92.7483 83.9912 100.928 94.0455 100.928C104.1 100.928 112.28 92.7483 112.28 82.694C112.28 72.6397 104.1 64.46 94.0455 64.46ZM147.298 35.3906C159.357 35.3906 163.215 30.1813 163.616 29.5875C163.918 29.1386 164.093 28.6159 164.121 28.0753C164.149 27.5348 164.029 26.9968 163.775 26.5189C163.521 26.0411 163.141 25.6414 162.677 25.3626C162.213 25.0839 161.682 24.9366 161.141 24.9365H152.712C151.064 24.9365 149.729 26.2723 149.729 27.9203C149.729 28.4209 149.852 28.8925 150.069 29.3066C149.225 29.3809 148.303 29.4234 147.298 29.4234C145.65 29.4234 144.315 30.7592 144.315 32.4071C144.315 34.0551 145.65 35.3906 147.298 35.3906ZM162.58 82.6938C162.58 84.3867 163.953 85.7592 165.646 85.7592C167.339 85.7592 168.711 84.3867 168.711 82.6938C168.711 81.0008 167.339 79.6283 165.646 79.6283C163.953 79.6283 162.58 81.0008 162.58 82.6938ZM91.001 82.6938C91.001 84.3753 92.3642 85.7383 94.0455 85.7383C95.7271 85.7383 97.09 84.3753 97.09 82.6938C97.09 81.0122 95.7268 79.6492 94.0455 79.6492C92.364 79.6492 91.001 81.0124 91.001 82.6938ZM121.142 35.1385L105.463 33.8585C103.081 33.664 100.993 35.4371 100.799 37.8182C100.604 40.1996 102.378 42.2877 104.759 42.4821C104.939 42.4967 105.118 42.5004 105.294 42.4931L105.878 42.4645L121.459 41.713C123.267 41.6257 124.662 40.0895 124.575 38.2817C124.495 36.6173 123.186 35.3032 121.568 35.1728L121.142 35.1385Z" 
    fill="#464A4C"/>
    <path d="M131.061 88.3123C127.856 88.3123 125.259 85.7148 125.259 82.5107C125.259 79.3065 127.856 76.709 131.061 76.709C134.265 76.709 136.862 79.3065 136.862 82.5107C136.862 85.7148 134.265 88.3123 131.061 88.3123Z" fill="#597B91"/>
    <line y1="109" x2="343" y2="109" stroke="#464A4C" stroke-width="6"/>
</svg>