<svg xmlns="http://www.w3.org/2000/svg" viewBox="0 0 10 35">
  <path d="M9.875 5.16663C9.875 7.18621 8.59542 8.89746 6.79167 9.52954V25.4704C8.59542 26.1025 9.875 27.8137 9.875 29.8333C9.875 31.0599 9.38773 32.2363 8.52037 33.1037C7.65301 33.971 6.47663 34.4583 5.25 34.4583C4.02337 34.4583 2.84699 33.971 1.97963 33.1037C1.11228 32.2363 0.625 31.0599 0.625 29.8333C0.622231 28.8759 0.917621 27.9414 1.47016 27.1596C2.02269 26.3778 2.80496 25.7874 3.70833 25.4704V9.52954C2.80496 9.21255 2.02269 8.62215 1.47016 7.84032C0.917621 7.05848 0.622231 6.124 0.625 5.16663C0.625 3.94 1.11228 2.76361 1.97963 1.89626C2.84699 1.0289 4.02337 0.541626 5.25 0.541626C6.47663 0.541626 7.65301 1.0289 8.52037 1.89626C9.38773 2.76361 9.875 3.94 9.875 5.16663Z" fill="#CCFF90"/>
</svg>
