<svg xmlns="http://www.w3.org/2000/svg" viewBox="0 0 6 22">
  <path d="M6 3C6 4.31 5.17 5.42 4 5.83V16.17C5.17 16.58 6 17.69 6 19C6 19.7956 5.68393 20.5587 5.12132 21.1213C4.55871 21.6839 3.79565 22 3 22C2.20435 22 1.44129 21.6839 0.878679 21.1213C0.31607 20.5587 0 19.7956 0 19C-0.00179625 18.379 0.189808 17.7729 0.54821 17.2657C0.906612 16.7586 1.41403 16.3756 2 16.17V5.83C1.41403 5.62439 0.906612 5.24142 0.54821 4.73429C0.189808 4.22715 -0.00179625 3.621 0 3C0 2.20435 0.31607 1.44129 0.878679 0.87868C1.44129 0.31607 2.20435 0 3 0C3.79565 0 4.55871 0.31607 5.12132 0.87868C5.68393 1.44129 6 2.20435 6 3Z" fill="#BEBEBE"/>
</svg>
