<svg xmlns="http://www.w3.org/2000/svg" viewBox="0 0 12 17">
      <path d="M10.6956 4.70295L1.60317 1.12037C1.32817 1.01204 1.19067 0.95787 1.09533 1.03912C1 1.12037 1 1.29154 1 1.63495V9.54979L10.6956 5.72995C11.2346 5.51762 11.5041 5.41145 11.5041 5.21645C11.5041 5.02145 11.2346 4.91529 10.6956 4.70295Z" fill="#B2FF59"/>
      <path d="M1 9.54979V1.63495C1 1.29154 1 1.12037 1.09533 1.03912C1.19067 0.95787 1.32817 1.01204 1.60317 1.12037L10.6956 4.70295C11.2346 4.91529 11.5041 5.02145 11.5041 5.21645C11.5041 5.41145 11.2346 5.51762 10.6956 5.72995L1 9.54979ZM1 9.54979V16.0498V9.54979Z" fill="#B2FF59"/>
      <path d="M1 9.54979V1.63495C1 1.29154 1 1.12037 1.09533 1.03912C1.19067 0.95787 1.32817 1.01204 1.60317 1.12037L10.6956 4.70295C11.2346 4.91529 11.5041 5.02145 11.5041 5.21645C11.5041 5.41145 11.2346 5.51762 10.6956 5.72995L1 9.54979ZM1 9.54979V16.0498" stroke="#333333" stroke-linecap="round"/>
    </svg>