<svg xmlns="http://www.w3.org/2000/svg" viewBox="0 0 23 22">
  <path d="M11.5 22C11.1449 21.9995 10.7982 21.8883 10.5049 21.6809C6.15997 18.6244 4.27861 16.5286 3.2409 15.2184C1.02948 12.4254 -0.0292403 9.55797 0.0006139 6.45276C0.0354438 2.89438 2.79032 0 6.14173 0C8.57871 0 10.2666 1.42255 11.2496 2.60734C11.2807 2.6445 11.3192 2.67429 11.3624 2.69471C11.4056 2.71512 11.4525 2.72569 11.5 2.72569C11.5475 2.72569 11.5944 2.71512 11.6376 2.69471C11.6808 2.67429 11.7193 2.6445 11.7504 2.60734C12.7334 1.42141 14.4213 0 16.8583 0C20.2097 0 22.9646 2.89438 22.9994 6.45333C23.0292 9.55911 21.9694 12.4266 19.7591 15.219C18.7214 16.5292 16.84 18.6249 12.4951 21.6815C12.2018 21.8887 11.855 21.9997 11.5 22Z" fill="#FF0000"/>
</svg>
