<svg xmlns="http://www.w3.org/2000/svg" viewBox="0 0 16 16">
  <path d="M8 14C6.81331 14 5.65327 13.6481 4.66658 12.9888C3.67988 12.3295 2.91085 11.3925 2.45672 10.2961C2.0026 9.19975 1.88378 7.99335 2.11529 6.82946C2.3468 5.66558 2.91824 4.59648 3.75736 3.75736C4.59647 2.91825 5.66557 2.3468 6.82946 2.11529C7.99334 1.88378 9.19974 2.0026 10.2961 2.45673C11.3925 2.91085 12.3295 3.67989 12.9888 4.66658C13.6481 5.65328 14 6.81331 14 8C14 8.992 13.76 9.92667 13.3333 10.7513L14 14L10.7513 13.3333C9.92733 13.7593 8.99133 14 8 14Z" stroke="#333333" stroke-linecap="round" stroke-linejoin="round"/>
</svg>
