<svg xmlns="http://www.w3.org/2000/svg" viewBox="0 0 166 30">
  <path d="M60.228 25.532C58.252 25.558 55.574 25.22 54.066 24.466C53.728 24.31 53.468 23.816 53.624 23.296C53.806 22.776 54.43 22.516 54.82 22.672C55.392 22.88 55.912 23.036 56.432 23.166C56.224 19.656 56.224 14.638 56.432 10.79H54.898C54.508 10.79 54.04 10.322 54.04 9.854C54.04 9.386 54.456 8.892 54.872 8.892H65.532C65.922 8.892 66.416 9.308 66.416 9.854C66.416 10.322 66 10.79 65.558 10.79H58.46C58.2 14.508 58.2 20.02 58.486 23.504C59.006 23.556 59.578 23.582 60.228 23.582C60.878 23.582 61.45 23.556 61.97 23.504C62.178 20.176 62.126 16.042 61.97 13.286C61.944 12.948 62.1 12.35 62.828 12.246C63.452 12.142 63.998 12.558 64.024 13.026C64.206 15.756 64.206 19.864 64.024 23.166C64.544 23.036 65.064 22.88 65.636 22.672C66.026 22.516 66.65 22.776 66.806 23.296C66.988 23.816 66.728 24.31 66.39 24.466C64.518 25.272 62.594 25.532 60.228 25.532ZM74.034 17.056H71.538C71.512 21.086 71.382 25.116 71.252 26.572C71.174 27.092 70.602 27.456 70.082 27.404C69.536 27.378 69.12 26.936 69.146 26.39C69.484 22.412 69.536 12.376 69.146 8.294C69.068 7.748 69.51 7.358 70.056 7.28C70.602 7.228 71.174 7.54 71.252 8.112C71.434 9.49 71.538 12.194 71.538 15.132H74.008C74.398 15.132 74.892 15.548 74.892 16.094C74.892 16.562 74.476 17.056 74.034 17.056ZM88.0439 16.9C88.0439 22.152 85.7299 25.532 81.9859 25.532C78.1639 25.532 75.9279 22.048 75.9279 16.9C75.9279 11.778 78.1379 8.268 81.9859 8.268C86.0159 8.268 88.0439 12.09 88.0439 16.9ZM85.9119 16.952C85.9119 12.636 84.5859 10.244 81.9599 10.244C79.4899 10.244 78.0599 12.506 78.0599 16.952C78.0599 21.086 79.3599 23.556 81.9599 23.556C84.6119 23.556 85.9119 21.086 85.9119 16.952ZM95.8699 17.056H93.3739C93.3479 21.086 93.2179 25.116 93.0879 26.572C93.0099 27.092 92.4379 27.456 91.9179 27.404C91.3719 27.378 90.9559 26.936 90.9819 26.39C91.3199 22.412 91.3719 12.376 90.9819 8.294C90.9039 7.748 91.3459 7.358 91.8919 7.28C92.4379 7.228 93.0099 7.54 93.0879 8.112C93.2699 9.49 93.3739 12.194 93.3739 15.132H95.8439C96.2339 15.132 96.7279 15.548 96.7279 16.094C96.7279 16.562 96.3119 17.056 95.8699 17.056ZM98.6479 17.706C98.4399 16.692 98.4659 14.222 98.6999 13.312C98.8299 12.948 99.1679 12.376 99.7139 12.376H107.254C107.332 12.012 107.41 10.712 107.306 9.932C107.28 9.75 107.254 9.49 106.89 9.49H99.7919C99.4019 9.49 98.9599 8.996 98.9599 8.528C98.9599 8.06 99.3759 7.592 99.8179 7.592H107.904C108.58 7.592 109.126 8.294 109.256 8.996C109.438 10.244 109.386 12.428 109.178 13.26C109.048 13.728 108.606 14.274 107.8 14.274H100.598C100.494 14.638 100.494 16.068 100.598 16.848C100.598 17.004 100.65 17.186 100.858 17.316C101.638 17.732 103.25 17.914 104.81 17.914C106.474 17.914 108.242 17.524 108.892 17.212C109.282 17.03 110.062 17.29 110.218 17.888C110.348 18.434 109.958 18.876 109.594 19.032C108.424 19.604 106.344 19.89 104.68 19.89C102.834 19.89 100.988 19.578 99.9999 19.136C99.4019 18.85 98.8039 18.46 98.6479 17.706ZM115.704 8.112C115.834 9.256 115.912 11.076 115.912 13.052H118.044C118.434 13.052 118.928 13.468 118.928 14.014C118.928 14.482 118.512 14.976 118.07 14.976H115.938C115.912 17.446 115.834 19.864 115.704 21.19C115.626 21.71 115.054 22.074 114.534 22.022C113.988 21.996 113.572 21.554 113.598 21.008C113.884 17.914 113.858 11.674 113.598 8.294C113.572 7.748 113.962 7.358 114.508 7.28C115.054 7.228 115.626 7.54 115.704 8.112ZM115.912 27.378C114.04 28.184 110.946 28.418 108.58 28.444C106.24 28.444 102.834 28.236 101.482 27.69C100.858 27.43 100.286 27.014 100.13 26.26C99.8959 25.22 99.9219 23.27 100.078 21.866C100.104 21.502 100.494 21.034 101.144 21.034C101.768 21.034 102.158 21.554 102.132 21.944C102.002 22.958 101.924 24.674 102.132 25.688C102.158 25.792 102.21 25.844 102.34 25.896C103.172 26.234 106.578 26.52 108.788 26.52C110.972 26.52 113.39 26.182 115.158 25.61C115.522 25.454 116.172 25.636 116.328 26.182C116.51 26.702 116.25 27.222 115.912 27.378ZM135.876 19.656C135.772 20.02 135.33 20.41 134.706 20.306C134.082 20.202 133.822 19.682 133.874 19.292C134.212 16.822 134.42 13.52 134.212 10.972C134.186 10.79 134.186 10.53 133.822 10.53H122.33C121.914 10.53 121.498 10.036 121.498 9.568C121.498 9.022 122.018 8.632 122.382 8.632H134.81C135.486 8.632 136.084 9.022 136.214 9.776C136.526 11.882 136.396 17.55 135.876 19.656ZM132.652 16.51H122.226C121.81 16.51 121.368 16.016 121.368 15.548C121.368 15.08 121.784 14.612 122.226 14.612H132.626C132.99 14.612 133.51 15.002 133.51 15.548C133.51 16.016 133.094 16.51 132.652 16.51ZM120.146 26.104C119.6 26.026 119.184 25.532 119.262 25.012C119.34 24.44 119.834 24.076 120.354 24.154C122.018 24.31 124.592 24.44 127.322 24.466V19.604C127.322 19.214 127.738 18.72 128.336 18.72C128.908 18.72 129.454 19.136 129.454 19.578V24.466C132.73 24.492 135.98 24.388 137.956 24.154C138.528 24.076 139.048 24.492 139.074 25.012C139.126 25.532 138.684 26.026 138.19 26.104C135.174 26.494 123.656 26.598 120.146 26.104ZM143.658 21.034C143.138 21.164 142.514 20.878 142.358 20.41C142.254 19.968 142.41 19.344 142.956 19.162C146.544 17.862 149.17 15.756 149.17 11.336V9.074C149.17 8.71 149.586 8.216 150.184 8.216C150.756 8.216 151.302 8.632 151.302 9.048V11.518C151.302 16.744 147.688 19.786 143.658 21.034ZM152.94 15.782L158.322 19.136C158.634 19.37 158.972 19.89 158.582 20.462C158.244 21.06 157.49 21.06 157.048 20.774L151.64 17.42C151.276 17.16 151.12 16.536 151.484 16.042C151.848 15.548 152.498 15.522 152.94 15.782ZM141.474 26.104C140.928 26.026 140.512 25.532 140.59 25.012C140.668 24.44 141.162 24.076 141.682 24.154C145.79 24.544 155.228 24.622 159.284 24.154C159.856 24.076 160.376 24.492 160.402 25.012C160.454 25.532 160.012 26.026 159.518 26.104C156.502 26.494 144.984 26.598 141.474 26.104Z" fill="white"/>
</svg>
