<svg xmlns="http://www.w3.org/2000/svg" style="display: none;">

  <symbol id="logo" viewBox="0 0 5086 3759">
    <rect y="1265" width="872" height="337" fill="#E4E7EB"/>
    <rect y="2412" width="872" height="337" fill="#E4E7EB"/>
    <rect x="2538" y="2412" width="872" height="337" fill="#E4E7EB"/>
    <rect x="1145" y="1265" width="1393" height="337" fill="#B2FF59"/>
    <rect x="1145" y="2412" width="1393" height="337" fill="#B2FF59"/>
    <rect x="1209" y="1265" width="2494" height="337" transform="rotate(90 1209 1265)" fill="#B2FF59"/>
    <rect x="1209" y="255" width="1010" height="337" transform="rotate(90 1209 255)" fill="#E4E7EB"/>
    <rect x="2537" y="2749" width="1010" height="337" transform="rotate(90 2537 2749)" fill="#E4E7EB"/>
    <rect x="2538" y="1265" width="1355" height="337" transform="rotate(90 2538 1265)" fill="#B2FF59"/>
    <path fill-rule="evenodd" clip-rule="evenodd" d="M4510.3 1928.16H3387.72L2335.26 1928.16C1954.04 1928.16 1645 1619.13 1645 1237.91C1645 856.689 1954.04 547.65 2335.26 547.65C2394.86 547.65 2452.7 555.205 2507.87 569.408C2658.66 233.749 2995.9 0 3387.72 0C3865.55 0 4262.18 347.616 4338.53 803.753C4392.89 786.731 4450.71 777.556 4510.68 777.556C4828.41 777.556 5085.98 1035.13 5085.98 1352.86C5085.98 1670.59 4828.41 1928.16 4510.68 1928.16C4510.55 1928.16 4510.42 1928.16 4510.3 1928.16Z" fill="white"/>
  </symbol>

  <symbol id="logo-fulltext-eng" viewBox="0 0 12945 1918">
    <path d="M3727.5 1249.5H3543C3519 1249.5 3492 1222.5 3492 1194C3492 1165.5 3517.5 1138.5 3541.5 1138.5H3723C3897 1138.5 3958.5 1063.5 3958.5 948C3958.5 838.5 3901.5 757.5 3729 757.5H3477C3456 757.5 3457.5 772.5 3456 781.5C3439.5 1051.5 3445.5 1396.5 3453 1614C3453 1630.5 3436.5 1668 3394.5 1668C3343.5 1668 3334.5 1626 3334.5 1612.5C3328.5 1476 3324 834 3342 714C3349.5 669 3385.5 646.5 3421.5 646.5H3730.5C3963 646.5 4074 781.5 4074 948C4074 1116 3963 1249.5 3727.5 1249.5ZM4414.88 936C4594.88 939 4720.88 1014 4723.88 1257C4725.38 1357.5 4722.38 1531.5 4711.88 1602C4704.38 1645.5 4668.38 1668 4632.38 1668H4429.88C4209.38 1668 4083.38 1609.5 4083.38 1438.5C4083.38 1279.5 4182.38 1201.5 4432.88 1201.5H4510.88C4534.88 1201.5 4561.88 1219.5 4561.88 1257C4561.88 1293 4537.88 1314 4512.38 1314H4431.38C4254.38 1314 4200.38 1336.5 4200.38 1437C4200.38 1528.5 4260.38 1557 4423.88 1557H4576.88C4597.88 1557 4596.38 1542 4597.88 1533C4606.88 1384.5 4608.38 1327.5 4608.38 1267.5C4608.38 1071 4521.38 1050 4408.88 1047C4348.88 1045.5 4263.37 1060.5 4225.88 1063.5C4192.88 1065 4170.38 1035 4168.88 1011C4167.38 979.5 4191.38 957 4216.88 951C4279.88 939 4374.38 936 4414.88 936ZM5176.59 936C5356.59 939 5482.59 1014 5485.59 1257C5487.09 1357.5 5484.09 1531.5 5473.59 1602C5466.09 1645.5 5430.09 1668 5394.09 1668H5191.59C4971.09 1668 4845.09 1609.5 4845.09 1438.5C4845.09 1279.5 4944.09 1201.5 5194.59 1201.5H5272.59C5296.59 1201.5 5323.59 1219.5 5323.59 1257C5323.59 1293 5299.59 1314 5274.09 1314H5193.09C5016.09 1314 4962.09 1336.5 4962.09 1437C4962.09 1528.5 5022.09 1557 5185.59 1557H5338.59C5359.59 1557 5358.09 1542 5359.59 1533C5368.59 1384.5 5370.09 1327.5 5370.09 1267.5C5370.09 1071 5283.09 1050 5170.59 1047C5110.59 1045.5 5025.09 1060.5 4987.59 1063.5C4954.59 1065 4932.09 1035 4930.59 1011C4929.09 979.5 4953.09 957 4978.59 951C5041.59 939 5136.09 936 5176.59 936ZM5764.31 1257C5764.31 1342.5 5764.31 1516.5 5767.31 1614C5767.31 1630.5 5747.81 1668 5707.31 1668C5656.31 1668 5647.31 1626 5647.31 1612.5C5645.81 1528.5 5645.81 1341 5645.81 1246.5C5645.81 1051.5 5756.81 949.5 5945.81 949.5H6056.81C6080.81 949.5 6106.31 972 6106.31 1008C6106.31 1041 6082.31 1063.5 6056.81 1063.5H5932.31C5828.81 1063.5 5764.31 1111.5 5764.31 1257ZM6459.8 936C6639.8 939 6765.8 1014 6768.8 1257C6770.3 1357.5 6767.3 1531.5 6756.8 1602C6749.3 1645.5 6713.3 1668 6677.3 1668H6474.8C6254.3 1668 6128.3 1609.5 6128.3 1438.5C6128.3 1279.5 6227.3 1201.5 6477.8 1201.5H6555.8C6579.8 1201.5 6606.8 1219.5 6606.8 1257C6606.8 1293 6582.8 1314 6557.3 1314H6476.3C6299.3 1314 6245.3 1336.5 6245.3 1437C6245.3 1528.5 6305.3 1557 6468.8 1557H6621.8C6642.8 1557 6641.3 1542 6642.8 1533C6651.8 1384.5 6653.3 1327.5 6653.3 1267.5C6653.3 1071 6566.3 1050 6453.8 1047C6393.8 1045.5 6308.3 1060.5 6270.8 1063.5C6237.8 1065 6215.3 1035 6213.8 1011C6212.3 979.5 6236.3 957 6261.8 951C6324.8 939 6419.3 936 6459.8 936ZM7050.52 1614C7050.52 1630.5 7034.02 1668 6992.02 1668C6941.02 1668 6932.02 1626 6932.02 1612.5C6929.02 1419 6927.52 1177.5 6932.02 1002C6932.02 987 6941.02 945 6992.02 945C7034.02 945 7050.52 982.5 7050.52 1000.5C7046.02 1168.5 7044.52 1378.5 7050.52 1614ZM7449.52 1312.5C7449.52 1167 7389.52 1060.5 7217.02 1060.5H7137.52C7113.52 1060.5 7089.52 1039.5 7089.52 1005C7089.52 970.5 7116.52 949.5 7140.52 949.5H7205.02C7473.52 949.5 7568.02 1114.5 7568.02 1309.5C7568.02 1404 7565.02 1528.5 7563.52 1612.5C7563.52 1626 7554.52 1668 7503.52 1668C7460.02 1668 7443.52 1630.5 7443.52 1614C7446.52 1516.5 7449.52 1398 7449.52 1312.5ZM8537.47 1683C8328.97 1675.5 8183.47 1528.5 8192.47 1300.5C8199.97 1066.5 8367.97 936 8573.47 939C8610.97 939 8682.97 943.5 8721.97 949.5C8745.97 955.5 8769.97 979.5 8768.47 1011C8766.97 1035 8741.47 1068 8708.47 1063.5C8673.97 1059 8603.47 1053 8570.47 1053C8438.47 1051.5 8318.47 1126.5 8312.47 1305C8306.47 1477.5 8408.47 1563 8538.97 1569C8612.47 1570.5 8663.47 1560 8721.97 1533C8741.47 1522.5 8787.97 1540.5 8793.97 1575C8801.47 1609.5 8774.47 1632 8757.97 1641C8700.97 1674 8622.97 1684.5 8537.47 1683ZM9226.37 1683C9019.37 1683 8854.37 1540.5 8854.37 1312.5C8854.37 1077 9026.87 937.5 9226.37 937.5C9424.37 937.5 9596.87 1077 9596.87 1312.5C9596.87 1540.5 9431.87 1683 9226.37 1683ZM9226.37 1567.5C9367.37 1567.5 9476.87 1479 9476.87 1311C9476.87 1131 9359.87 1053 9226.37 1053C9092.87 1053 8974.37 1131 8974.37 1311C8974.37 1479 9080.87 1567.5 9226.37 1567.5ZM10234 999C10234 981 10250.5 943.5 10294 943.5C10345 943.5 10354 985.5 10354 1000.5C10357 1192.5 10358.5 1434 10354 1611C10354 1624.5 10345 1666.5 10294 1666.5C10250.5 1666.5 10234 1629 10234 1612.5C10238.5 1444.5 10240 1233 10234 999ZM9835.04 1306.5C9835.04 1452 9896.54 1557 10069 1557H10148.5C10172.5 1557 10196.5 1576.5 10196.5 1615.5C10196.5 1648.5 10169.5 1668 10145.5 1668H10081C9811.04 1668 9718.04 1503 9718.04 1309.5C9718.04 1213.5 9721.04 1083 9722.54 1000.5C9722.54 985.5 9731.54 943.5 9782.54 943.5C9824.54 943.5 9841.04 981 9841.04 999C9838.04 1095 9835.04 1219.5 9835.04 1306.5ZM10636.4 1257C10636.4 1342.5 10636.4 1516.5 10639.4 1614C10639.4 1630.5 10619.9 1668 10579.4 1668C10528.4 1668 10519.4 1626 10519.4 1612.5C10517.9 1528.5 10517.9 1341 10517.9 1246.5C10517.9 1051.5 10628.9 949.5 10817.9 949.5H10928.9C10952.9 949.5 10978.4 972 10978.4 1008C10978.4 1041 10954.4 1063.5 10928.9 1063.5H10804.4C10700.9 1063.5 10636.4 1111.5 10636.4 1257ZM11295.9 1566C11405.4 1566 11511.9 1551 11511.9 1461C11511.9 1396.5 11442.9 1378.5 11304.9 1347C11168.4 1317 11012.4 1281 11012.4 1141.5C11012.4 1002 11144.4 940.5 11310.9 936C11363.4 934.5 11474.4 939 11519.4 946.5C11544.9 951 11570.4 970.5 11567.4 1008C11564.4 1042.5 11538.9 1065 11505.9 1060.5C11460.9 1054.5 11345.4 1047 11309.4 1048.5C11213.4 1051.5 11132.4 1072.5 11132.4 1141.5C11132.4 1204.5 11262.9 1221 11354.4 1243.5C11532.9 1288.5 11631.9 1333.5 11631.9 1468.5C11631.9 1645.5 11421.9 1687.5 11277.9 1680C11193.9 1675.5 11100.9 1663.5 11042.4 1632C11024.4 1621.5 10998.9 1603.5 11006.4 1561.5C11013.9 1519.5 11058.9 1510.5 11079.9 1521C11136.9 1548 11222.4 1566 11295.9 1566ZM11715.2 1311C11715.2 1078.5 11868.2 937.5 12070.7 937.5C12201.2 937.5 12394.7 1023 12402.2 1266C12403.7 1330.5 12354.2 1360.5 12322.7 1360.5H11935.7C11913.2 1360.5 11886.2 1341 11886.2 1308C11886.2 1273.5 11910.2 1249.5 11934.2 1249.5H12283.7C12279.2 1114.5 12181.7 1051.5 12070.7 1051.5C11938.7 1051.5 11836.7 1132.5 11836.7 1312.5C11836.7 1485 11941.7 1561.5 12078.2 1569C12150.2 1573.5 12208.7 1557 12273.2 1522.5C12295.7 1512 12340.7 1530 12346.7 1564.5C12354.2 1599 12328.7 1621.5 12310.7 1632C12253.7 1662 12160.7 1687.5 12073.7 1683C11865.2 1674 11715.2 1527 11715.2 1311Z" fill="white"/>
    <rect y="668.394" width="392.582" height="178.062" fill="#E4E7EB"/>
    <rect y="1274.44" width="533.658" height="178.062" fill="#E4E7EB"/>
    <rect y="1274.44" width="392.582" height="178.062" fill="#E4E7EB"/>
    <rect x="1272.86" y="1274.44" width="392.582" height="178.062" fill="#E4E7EB"/>
    <rect x="536.828" y="668.394" width="736.026" height="178.062" fill="#B2FF59"/>
    <rect x="536.828" y="1274.44" width="736.026" height="178.062" fill="#B2FF59"/>
    <rect x="570.645" y="668.394" width="1249.61" height="178.062" transform="rotate(90 570.645 668.394)" fill="#B2FF59"/>
    <rect x="570.645" y="134.735" width="533.658" height="178.062" transform="rotate(90 570.645 134.735)" fill="#E4E7EB"/>
    <rect x="1272.33" y="1452.5" width="465.498" height="178.062" transform="rotate(90 1272.33 1452.5)" fill="#E4E7EB"/>
    <rect x="1272.86" y="668.394" width="715.948" height="178.062" transform="rotate(90 1272.86 668.394)" fill="#B2FF59"/>
    <path fill-rule="evenodd" clip-rule="evenodd" d="M1165.73 1018.79C964.303 1018.79 801.016 855.505 801.016 654.079C801.016 452.653 964.304 289.365 1165.73 289.365C1197.22 289.365 1227.78 293.356 1256.93 300.861C1336.61 123.507 1514.8 0 1721.83 0C1974.3 0 2183.87 183.671 2224.21 424.683C2252.93 415.689 2283.48 410.841 2315.17 410.841C2483.05 410.841 2619.14 546.936 2619.14 714.817C2619.14 882.699 2483.05 1018.79 2315.17 1018.79C2315.04 1018.79 2314.91 1018.79 2314.78 1018.79H1722.08C1721.99 1018.79 1721.91 1018.79 1721.83 1018.79C1721.74 1018.79 1721.66 1018.79 1721.57 1018.79H1165.73Z" fill="white"/>
  </symbol>

  <symbol id="logo-fulltext-kor-v1" viewBox="0 0 189 65">
    <path d="M84.618 31.442C82.262 31.473 79.069 31.07 77.271 30.171C76.868 29.985 76.558 29.396 76.744 28.776C76.961 28.156 77.705 27.846 78.17 28.032C78.852 28.28 79.472 28.466 80.092 28.621C79.844 24.436 79.844 18.453 80.092 13.865H78.263C77.798 13.865 77.24 13.307 77.24 12.749C77.24 12.191 77.736 11.602 78.232 11.602H90.942C91.407 11.602 91.996 12.098 91.996 12.749C91.996 13.307 91.5 13.865 90.973 13.865H82.51C82.2 18.298 82.2 24.87 82.541 29.024C83.161 29.086 83.843 29.117 84.618 29.117C85.393 29.117 86.075 29.086 86.695 29.024C86.943 25.056 86.881 20.127 86.695 16.841C86.664 16.438 86.85 15.725 87.718 15.601C88.462 15.477 89.113 15.973 89.144 16.531C89.361 19.786 89.361 24.684 89.144 28.621C89.764 28.466 90.384 28.28 91.066 28.032C91.531 27.846 92.275 28.156 92.461 28.776C92.678 29.396 92.368 29.985 91.965 30.171C89.733 31.132 87.439 31.442 84.618 31.442ZM101.079 21.336H98.103C98.072 26.141 97.917 30.946 97.762 32.682C97.669 33.302 96.987 33.736 96.367 33.674C95.716 33.643 95.22 33.116 95.251 32.465C95.654 27.722 95.716 15.756 95.251 10.889C95.158 10.238 95.685 9.773 96.336 9.68C96.987 9.618 97.669 9.99 97.762 10.672C97.979 12.315 98.103 15.539 98.103 19.042H101.048C101.513 19.042 102.102 19.538 102.102 20.189C102.102 20.747 101.606 21.336 101.079 21.336ZM117.783 21.15C117.783 27.412 115.024 31.442 110.56 31.442C106.003 31.442 103.337 27.288 103.337 21.15C103.337 15.043 105.972 10.858 110.56 10.858C115.365 10.858 117.783 15.415 117.783 21.15ZM115.241 21.212C115.241 16.066 113.66 13.214 110.529 13.214C107.584 13.214 105.879 15.911 105.879 21.212C105.879 26.141 107.429 29.086 110.529 29.086C113.691 29.086 115.241 26.141 115.241 21.212ZM127.114 21.336H124.138C124.107 26.141 123.952 30.946 123.797 32.682C123.704 33.302 123.022 33.736 122.402 33.674C121.751 33.643 121.255 33.116 121.286 32.465C121.689 27.722 121.751 15.756 121.286 10.889C121.193 10.238 121.72 9.773 122.371 9.68C123.022 9.618 123.704 9.99 123.797 10.672C124.014 12.315 124.138 15.539 124.138 19.042H127.083C127.548 19.042 128.137 19.538 128.137 20.189C128.137 20.747 127.641 21.336 127.114 21.336ZM130.426 22.111C130.178 20.902 130.209 17.957 130.488 16.872C130.643 16.438 131.046 15.756 131.697 15.756H140.687C140.78 15.322 140.873 13.772 140.749 12.842C140.718 12.625 140.687 12.315 140.253 12.315H131.79C131.325 12.315 130.798 11.726 130.798 11.168C130.798 10.61 131.294 10.052 131.821 10.052H141.462C142.268 10.052 142.919 10.889 143.074 11.726C143.291 13.214 143.229 15.818 142.981 16.81C142.826 17.368 142.299 18.019 141.338 18.019H132.751C132.627 18.453 132.627 20.158 132.751 21.088C132.751 21.274 132.813 21.491 133.061 21.646C133.991 22.142 135.913 22.359 137.773 22.359C139.757 22.359 141.865 21.894 142.64 21.522C143.105 21.305 144.035 21.615 144.221 22.328C144.376 22.979 143.911 23.506 143.477 23.692C142.082 24.374 139.602 24.715 137.618 24.715C135.417 24.715 133.216 24.343 132.038 23.816C131.325 23.475 130.612 23.01 130.426 22.111ZM150.762 10.672C150.917 12.036 151.01 14.206 151.01 16.562H153.552C154.017 16.562 154.606 17.058 154.606 17.709C154.606 18.267 154.11 18.856 153.583 18.856H151.041C151.01 21.801 150.917 24.684 150.762 26.265C150.669 26.885 149.987 27.319 149.367 27.257C148.716 27.226 148.22 26.699 148.251 26.048C148.592 22.359 148.561 14.919 148.251 10.889C148.22 10.238 148.685 9.773 149.336 9.68C149.987 9.618 150.669 9.99 150.762 10.672ZM151.01 33.643C148.778 34.604 145.089 34.883 142.268 34.914C139.478 34.914 135.417 34.666 133.805 34.015C133.061 33.705 132.379 33.209 132.193 32.31C131.914 31.07 131.945 28.745 132.131 27.071C132.162 26.637 132.627 26.079 133.402 26.079C134.146 26.079 134.611 26.699 134.58 27.164C134.425 28.373 134.332 30.419 134.58 31.628C134.611 31.752 134.673 31.814 134.828 31.876C135.82 32.279 139.881 32.62 142.516 32.62C145.12 32.62 148.003 32.217 150.111 31.535C150.545 31.349 151.32 31.566 151.506 32.217C151.723 32.837 151.413 33.457 151.01 33.643ZM96.708 56.436C96.584 56.87 96.057 57.335 95.313 57.211C94.569 57.087 94.259 56.467 94.321 56.002C94.724 53.057 94.972 49.12 94.724 46.082C94.693 45.865 94.693 45.555 94.259 45.555H80.557C80.061 45.555 79.565 44.966 79.565 44.408C79.565 43.757 80.185 43.292 80.619 43.292H95.437C96.243 43.292 96.956 43.757 97.111 44.656C97.483 47.167 97.328 53.925 96.708 56.436ZM92.864 52.685H80.433C79.937 52.685 79.41 52.096 79.41 51.538C79.41 50.98 79.906 50.422 80.433 50.422H92.833C93.267 50.422 93.887 50.887 93.887 51.538C93.887 52.096 93.391 52.685 92.864 52.685ZM77.953 64.124C77.302 64.031 76.806 63.442 76.899 62.822C76.992 62.14 77.581 61.706 78.201 61.799C80.185 61.985 83.254 62.14 86.509 62.171V56.374C86.509 55.909 87.005 55.32 87.718 55.32C88.4 55.32 89.051 55.816 89.051 56.343V62.171C92.957 62.202 96.832 62.078 99.188 61.799C99.87 61.706 100.49 62.202 100.521 62.822C100.583 63.442 100.056 64.031 99.467 64.124C95.871 64.589 82.138 64.713 77.953 64.124ZM105.987 58.079C105.367 58.234 104.623 57.893 104.437 57.335C104.313 56.808 104.499 56.064 105.15 55.847C109.428 54.297 112.559 51.786 112.559 46.516V43.819C112.559 43.385 113.055 42.796 113.768 42.796C114.45 42.796 115.101 43.292 115.101 43.788V46.733C115.101 52.964 110.792 56.591 105.987 58.079ZM117.054 51.817L123.471 55.816C123.843 56.095 124.246 56.715 123.781 57.397C123.378 58.11 122.479 58.11 121.952 57.769L115.504 53.77C115.07 53.46 114.884 52.716 115.318 52.127C115.752 51.538 116.527 51.507 117.054 51.817ZM103.383 64.124C102.732 64.031 102.236 63.442 102.329 62.822C102.422 62.14 103.011 61.706 103.631 61.799C108.529 62.264 119.782 62.357 124.618 61.799C125.3 61.706 125.92 62.202 125.951 62.822C126.013 63.442 125.486 64.031 124.897 64.124C121.301 64.589 107.568 64.713 103.383 64.124Z" fill="white"/>
    <g clip-path="url(#clip0_547_1450)">
    <path d="M9.42981 13.6797H0V17.324H9.42981V13.6797Z" fill="#E4E7EB"/>
    <path d="M9.42981 26.0834H0V29.7277H9.42981V26.0834Z" fill="#E4E7EB"/>
    <path d="M36.8757 26.0834H27.4459V29.7277H36.8757V26.0834Z" fill="#E4E7EB"/>
    <path d="M27.4459 13.6797H12.382V17.324H27.4459V13.6797Z" fill="#B2FF59"/>
    <path d="M27.4459 26.0834H12.382V29.7277H27.4459V26.0834Z" fill="#B2FF59"/>
    <path d="M13.0741 40.6498L13.0741 13.6797H9.42978L9.42978 40.6498H13.0741Z" fill="#B2FF59"/>
    <path d="M13.0741 13.6797V2.75757L9.42978 2.75757V13.6797H13.0741Z" fill="#E4E7EB"/>
    <path d="M27.4351 40.6498V29.7277H23.7908V40.6498H27.4351Z" fill="#E4E7EB"/>
    <path d="M27.4459 28.3327V13.6797H23.8016V28.3327H27.4459Z" fill="#B2FF59"/>
    <path fill-rule="evenodd" clip-rule="evenodd" d="M48.7744 20.8511H36.6348H25.2535C21.131 20.8511 17.789 17.5093 17.789 13.3868C17.789 9.26423 21.131 5.92229 25.2535 5.92229C25.898 5.92229 26.5235 6.00399 27.1201 6.15758C28.7507 2.52776 32.3976 0 36.6348 0C41.802 0 46.0912 3.75912 46.9168 8.69178C47.5047 8.50771 48.1299 8.40849 48.7785 8.40849C52.2144 8.40849 54.9998 11.1939 54.9998 14.6298C54.9998 18.0658 52.2144 20.8511 48.7785 20.8511C48.7771 20.8511 48.7756 20.8511 48.7744 20.8511Z" fill="white"/>
    </g>
    <defs>
    <clipPath id="clip0_547_1450">
    <rect width="55" height="40.6498" fill="white"/>
    </clipPath>
    </defs>
  </symbol>

  <symbol id="logo-fulltext-kor-v2" viewBox="0 0 166 30">
    <path d="M60.228 25.532C58.252 25.558 55.574 25.22 54.066 24.466C53.728 24.31 53.468 23.816 53.624 23.296C53.806 22.776 54.43 22.516 54.82 22.672C55.392 22.88 55.912 23.036 56.432 23.166C56.224 19.656 56.224 14.638 56.432 10.79H54.898C54.508 10.79 54.04 10.322 54.04 9.854C54.04 9.386 54.456 8.892 54.872 8.892H65.532C65.922 8.892 66.416 9.308 66.416 9.854C66.416 10.322 66 10.79 65.558 10.79H58.46C58.2 14.508 58.2 20.02 58.486 23.504C59.006 23.556 59.578 23.582 60.228 23.582C60.878 23.582 61.45 23.556 61.97 23.504C62.178 20.176 62.126 16.042 61.97 13.286C61.944 12.948 62.1 12.35 62.828 12.246C63.452 12.142 63.998 12.558 64.024 13.026C64.206 15.756 64.206 19.864 64.024 23.166C64.544 23.036 65.064 22.88 65.636 22.672C66.026 22.516 66.65 22.776 66.806 23.296C66.988 23.816 66.728 24.31 66.39 24.466C64.518 25.272 62.594 25.532 60.228 25.532ZM74.034 17.056H71.538C71.512 21.086 71.382 25.116 71.252 26.572C71.174 27.092 70.602 27.456 70.082 27.404C69.536 27.378 69.12 26.936 69.146 26.39C69.484 22.412 69.536 12.376 69.146 8.294C69.068 7.748 69.51 7.358 70.056 7.28C70.602 7.228 71.174 7.54 71.252 8.112C71.434 9.49 71.538 12.194 71.538 15.132H74.008C74.398 15.132 74.892 15.548 74.892 16.094C74.892 16.562 74.476 17.056 74.034 17.056ZM88.0439 16.9C88.0439 22.152 85.7299 25.532 81.9859 25.532C78.1639 25.532 75.9279 22.048 75.9279 16.9C75.9279 11.778 78.1379 8.268 81.9859 8.268C86.0159 8.268 88.0439 12.09 88.0439 16.9ZM85.9119 16.952C85.9119 12.636 84.5859 10.244 81.9599 10.244C79.4899 10.244 78.0599 12.506 78.0599 16.952C78.0599 21.086 79.3599 23.556 81.9599 23.556C84.6119 23.556 85.9119 21.086 85.9119 16.952ZM95.8699 17.056H93.3739C93.3479 21.086 93.2179 25.116 93.0879 26.572C93.0099 27.092 92.4379 27.456 91.9179 27.404C91.3719 27.378 90.9559 26.936 90.9819 26.39C91.3199 22.412 91.3719 12.376 90.9819 8.294C90.9039 7.748 91.3459 7.358 91.8919 7.28C92.4379 7.228 93.0099 7.54 93.0879 8.112C93.2699 9.49 93.3739 12.194 93.3739 15.132H95.8439C96.2339 15.132 96.7279 15.548 96.7279 16.094C96.7279 16.562 96.3119 17.056 95.8699 17.056ZM98.6479 17.706C98.4399 16.692 98.4659 14.222 98.6999 13.312C98.8299 12.948 99.1679 12.376 99.7139 12.376H107.254C107.332 12.012 107.41 10.712 107.306 9.932C107.28 9.75 107.254 9.49 106.89 9.49H99.7919C99.4019 9.49 98.9599 8.996 98.9599 8.528C98.9599 8.06 99.3759 7.592 99.8179 7.592H107.904C108.58 7.592 109.126 8.294 109.256 8.996C109.438 10.244 109.386 12.428 109.178 13.26C109.048 13.728 108.606 14.274 107.8 14.274H100.598C100.494 14.638 100.494 16.068 100.598 16.848C100.598 17.004 100.65 17.186 100.858 17.316C101.638 17.732 103.25 17.914 104.81 17.914C106.474 17.914 108.242 17.524 108.892 17.212C109.282 17.03 110.062 17.29 110.218 17.888C110.348 18.434 109.958 18.876 109.594 19.032C108.424 19.604 106.344 19.89 104.68 19.89C102.834 19.89 100.988 19.578 99.9999 19.136C99.4019 18.85 98.8039 18.46 98.6479 17.706ZM115.704 8.112C115.834 9.256 115.912 11.076 115.912 13.052H118.044C118.434 13.052 118.928 13.468 118.928 14.014C118.928 14.482 118.512 14.976 118.07 14.976H115.938C115.912 17.446 115.834 19.864 115.704 21.19C115.626 21.71 115.054 22.074 114.534 22.022C113.988 21.996 113.572 21.554 113.598 21.008C113.884 17.914 113.858 11.674 113.598 8.294C113.572 7.748 113.962 7.358 114.508 7.28C115.054 7.228 115.626 7.54 115.704 8.112ZM115.912 27.378C114.04 28.184 110.946 28.418 108.58 28.444C106.24 28.444 102.834 28.236 101.482 27.69C100.858 27.43 100.286 27.014 100.13 26.26C99.8959 25.22 99.9219 23.27 100.078 21.866C100.104 21.502 100.494 21.034 101.144 21.034C101.768 21.034 102.158 21.554 102.132 21.944C102.002 22.958 101.924 24.674 102.132 25.688C102.158 25.792 102.21 25.844 102.34 25.896C103.172 26.234 106.578 26.52 108.788 26.52C110.972 26.52 113.39 26.182 115.158 25.61C115.522 25.454 116.172 25.636 116.328 26.182C116.51 26.702 116.25 27.222 115.912 27.378ZM135.876 19.656C135.772 20.02 135.33 20.41 134.706 20.306C134.082 20.202 133.822 19.682 133.874 19.292C134.212 16.822 134.42 13.52 134.212 10.972C134.186 10.79 134.186 10.53 133.822 10.53H122.33C121.914 10.53 121.498 10.036 121.498 9.568C121.498 9.022 122.018 8.632 122.382 8.632H134.81C135.486 8.632 136.084 9.022 136.214 9.776C136.526 11.882 136.396 17.55 135.876 19.656ZM132.652 16.51H122.226C121.81 16.51 121.368 16.016 121.368 15.548C121.368 15.08 121.784 14.612 122.226 14.612H132.626C132.99 14.612 133.51 15.002 133.51 15.548C133.51 16.016 133.094 16.51 132.652 16.51ZM120.146 26.104C119.6 26.026 119.184 25.532 119.262 25.012C119.34 24.44 119.834 24.076 120.354 24.154C122.018 24.31 124.592 24.44 127.322 24.466V19.604C127.322 19.214 127.738 18.72 128.336 18.72C128.908 18.72 129.454 19.136 129.454 19.578V24.466C132.73 24.492 135.98 24.388 137.956 24.154C138.528 24.076 139.048 24.492 139.074 25.012C139.126 25.532 138.684 26.026 138.19 26.104C135.174 26.494 123.656 26.598 120.146 26.104ZM143.658 21.034C143.138 21.164 142.514 20.878 142.358 20.41C142.254 19.968 142.41 19.344 142.956 19.162C146.544 17.862 149.17 15.756 149.17 11.336V9.074C149.17 8.71 149.586 8.216 150.184 8.216C150.756 8.216 151.302 8.632 151.302 9.048V11.518C151.302 16.744 147.688 19.786 143.658 21.034ZM152.94 15.782L158.322 19.136C158.634 19.37 158.972 19.89 158.582 20.462C158.244 21.06 157.49 21.06 157.048 20.774L151.64 17.42C151.276 17.16 151.12 16.536 151.484 16.042C151.848 15.548 152.498 15.522 152.94 15.782ZM141.474 26.104C140.928 26.026 140.512 25.532 140.59 25.012C140.668 24.44 141.162 24.076 141.682 24.154C145.79 24.544 155.228 24.622 159.284 24.154C159.856 24.076 160.376 24.492 160.402 25.012C160.454 25.532 160.012 26.026 159.518 26.104C156.502 26.494 144.984 26.598 141.474 26.104Z" fill="white"/>
    <path d="M6.85806 9.94885H0V12.5993H6.85806V9.94885Z" fill="#E4E7EB"/>
    <path d="M6.85806 18.9698H0V21.6203H6.85806V18.9698Z" fill="#E4E7EB"/>
    <path d="M26.819 18.9698H19.9609V21.6203H26.819V18.9698Z" fill="#E4E7EB"/>
    <path d="M19.9605 9.94885H9.00488V12.5993H19.9605V9.94885Z" fill="#B2FF59"/>
    <path d="M19.9605 18.9698H9.00488V21.6203H19.9605V18.9698Z" fill="#B2FF59"/>
    <path d="M9.50879 29.5635L9.50879 9.94885H6.85837L6.85837 29.5635H9.50879Z" fill="#B2FF59"/>
    <path d="M9.50879 9.94895V2.00555H6.85837V9.94895H9.50879Z" fill="#E4E7EB"/>
    <path d="M19.9531 29.5636V21.6202H17.3027V29.5636H19.9531Z" fill="#E4E7EB"/>
    <path d="M19.9609 20.6056V9.94885H17.3105V20.6056H19.9609Z" fill="#B2FF59"/>
    <path fill-rule="evenodd" clip-rule="evenodd" d="M35.4724 15.1645H26.6436H18.3662C15.368 15.1645 12.9375 12.7341 12.9375 9.73586C12.9375 6.73765 15.368 4.30713 18.3662 4.30713C18.835 4.30713 19.2899 4.36655 19.7238 4.47825C20.9097 1.83838 23.562 0 26.6436 0C30.4016 0 33.521 2.73391 34.1214 6.32132C34.549 6.18744 35.0037 6.11529 35.4754 6.11529C37.9742 6.11529 40 8.14104 40 10.6399C40 13.1388 37.9742 15.1645 35.4754 15.1645C35.4743 15.1645 35.4733 15.1645 35.4724 15.1645Z" fill="white"/>
  </symbol>
</svg>


