<svg xmlns="http://www.w3.org/2000/svg" viewBox="0 0 5086 3759">
  <rect y="1265" width="872" height="337" fill="#E4E7EB"/>
  <rect y="2412" width="872" height="337" fill="#E4E7EB"/>
  <rect x="2538" y="2412" width="872" height="337" fill="#E4E7EB"/>
  <rect x="1145" y="1265" width="1393" height="337" fill="#B2FF59"/>
  <rect x="1145" y="2412" width="1393" height="337" fill="#B2FF59"/>
  <rect x="1209" y="1265" width="2494" height="337" transform="rotate(90 1209 1265)" fill="#B2FF59"/>
  <rect x="1209" y="255" width="1010" height="337" transform="rotate(90 1209 255)" fill="#E4E7EB"/>
  <rect x="2537" y="2749" width="1010" height="337" transform="rotate(90 2537 2749)" fill="#E4E7EB"/>
  <rect x="2538" y="1265" width="1355" height="337" transform="rotate(90 2538 1265)" fill="#B2FF59"/>
  <path fill-rule="evenodd" clip-rule="evenodd" d="M4510.3 1928.16H3387.72L2335.26 1928.16C1954.04 1928.16 1645 1619.13 1645 1237.91C1645 856.689 1954.04 547.65 2335.26 547.65C2394.86 547.65 2452.7 555.205 2507.87 569.408C2658.66 233.749 2995.9 0 3387.72 0C3865.55 0 4262.18 347.616 4338.53 803.753C4392.89 786.731 4450.71 777.556 4510.68 777.556C4828.41 777.556 5085.98 1035.13 5085.98 1352.86C5085.98 1670.59 4828.41 1928.16 4510.68 1928.16C4510.55 1928.16 4510.42 1928.16 4510.3 1928.16Z" fill="white"/>
</svg>

