<svg xmlns="http://www.w3.org/2000/svg" viewBox="0 0 189 65">
  <path d="M84.618 31.442C82.262 31.473 79.069 31.07 77.271 30.171C76.868 29.985 76.558 29.396 76.744 28.776C76.961 28.156 77.705 27.846 78.17 28.032C78.852 28.28 79.472 28.466 80.092 28.621C79.844 24.436 79.844 18.453 80.092 13.865H78.263C77.798 13.865 77.24 13.307 77.24 12.749C77.24 12.191 77.736 11.602 78.232 11.602H90.942C91.407 11.602 91.996 12.098 91.996 12.749C91.996 13.307 91.5 13.865 90.973 13.865H82.51C82.2 18.298 82.2 24.87 82.541 29.024C83.161 29.086 83.843 29.117 84.618 29.117C85.393 29.117 86.075 29.086 86.695 29.024C86.943 25.056 86.881 20.127 86.695 16.841C86.664 16.438 86.85 15.725 87.718 15.601C88.462 15.477 89.113 15.973 89.144 16.531C89.361 19.786 89.361 24.684 89.144 28.621C89.764 28.466 90.384 28.28 91.066 28.032C91.531 27.846 92.275 28.156 92.461 28.776C92.678 29.396 92.368 29.985 91.965 30.171C89.733 31.132 87.439 31.442 84.618 31.442ZM101.079 21.336H98.103C98.072 26.141 97.917 30.946 97.762 32.682C97.669 33.302 96.987 33.736 96.367 33.674C95.716 33.643 95.22 33.116 95.251 32.465C95.654 27.722 95.716 15.756 95.251 10.889C95.158 10.238 95.685 9.773 96.336 9.68C96.987 9.618 97.669 9.99 97.762 10.672C97.979 12.315 98.103 15.539 98.103 19.042H101.048C101.513 19.042 102.102 19.538 102.102 20.189C102.102 20.747 101.606 21.336 101.079 21.336ZM117.783 21.15C117.783 27.412 115.024 31.442 110.56 31.442C106.003 31.442 103.337 27.288 103.337 21.15C103.337 15.043 105.972 10.858 110.56 10.858C115.365 10.858 117.783 15.415 117.783 21.15ZM115.241 21.212C115.241 16.066 113.66 13.214 110.529 13.214C107.584 13.214 105.879 15.911 105.879 21.212C105.879 26.141 107.429 29.086 110.529 29.086C113.691 29.086 115.241 26.141 115.241 21.212ZM127.114 21.336H124.138C124.107 26.141 123.952 30.946 123.797 32.682C123.704 33.302 123.022 33.736 122.402 33.674C121.751 33.643 121.255 33.116 121.286 32.465C121.689 27.722 121.751 15.756 121.286 10.889C121.193 10.238 121.72 9.773 122.371 9.68C123.022 9.618 123.704 9.99 123.797 10.672C124.014 12.315 124.138 15.539 124.138 19.042H127.083C127.548 19.042 128.137 19.538 128.137 20.189C128.137 20.747 127.641 21.336 127.114 21.336ZM130.426 22.111C130.178 20.902 130.209 17.957 130.488 16.872C130.643 16.438 131.046 15.756 131.697 15.756H140.687C140.78 15.322 140.873 13.772 140.749 12.842C140.718 12.625 140.687 12.315 140.253 12.315H131.79C131.325 12.315 130.798 11.726 130.798 11.168C130.798 10.61 131.294 10.052 131.821 10.052H141.462C142.268 10.052 142.919 10.889 143.074 11.726C143.291 13.214 143.229 15.818 142.981 16.81C142.826 17.368 142.299 18.019 141.338 18.019H132.751C132.627 18.453 132.627 20.158 132.751 21.088C132.751 21.274 132.813 21.491 133.061 21.646C133.991 22.142 135.913 22.359 137.773 22.359C139.757 22.359 141.865 21.894 142.64 21.522C143.105 21.305 144.035 21.615 144.221 22.328C144.376 22.979 143.911 23.506 143.477 23.692C142.082 24.374 139.602 24.715 137.618 24.715C135.417 24.715 133.216 24.343 132.038 23.816C131.325 23.475 130.612 23.01 130.426 22.111ZM150.762 10.672C150.917 12.036 151.01 14.206 151.01 16.562H153.552C154.017 16.562 154.606 17.058 154.606 17.709C154.606 18.267 154.11 18.856 153.583 18.856H151.041C151.01 21.801 150.917 24.684 150.762 26.265C150.669 26.885 149.987 27.319 149.367 27.257C148.716 27.226 148.22 26.699 148.251 26.048C148.592 22.359 148.561 14.919 148.251 10.889C148.22 10.238 148.685 9.773 149.336 9.68C149.987 9.618 150.669 9.99 150.762 10.672ZM151.01 33.643C148.778 34.604 145.089 34.883 142.268 34.914C139.478 34.914 135.417 34.666 133.805 34.015C133.061 33.705 132.379 33.209 132.193 32.31C131.914 31.07 131.945 28.745 132.131 27.071C132.162 26.637 132.627 26.079 133.402 26.079C134.146 26.079 134.611 26.699 134.58 27.164C134.425 28.373 134.332 30.419 134.58 31.628C134.611 31.752 134.673 31.814 134.828 31.876C135.82 32.279 139.881 32.62 142.516 32.62C145.12 32.62 148.003 32.217 150.111 31.535C150.545 31.349 151.32 31.566 151.506 32.217C151.723 32.837 151.413 33.457 151.01 33.643ZM96.708 56.436C96.584 56.87 96.057 57.335 95.313 57.211C94.569 57.087 94.259 56.467 94.321 56.002C94.724 53.057 94.972 49.12 94.724 46.082C94.693 45.865 94.693 45.555 94.259 45.555H80.557C80.061 45.555 79.565 44.966 79.565 44.408C79.565 43.757 80.185 43.292 80.619 43.292H95.437C96.243 43.292 96.956 43.757 97.111 44.656C97.483 47.167 97.328 53.925 96.708 56.436ZM92.864 52.685H80.433C79.937 52.685 79.41 52.096 79.41 51.538C79.41 50.98 79.906 50.422 80.433 50.422H92.833C93.267 50.422 93.887 50.887 93.887 51.538C93.887 52.096 93.391 52.685 92.864 52.685ZM77.953 64.124C77.302 64.031 76.806 63.442 76.899 62.822C76.992 62.14 77.581 61.706 78.201 61.799C80.185 61.985 83.254 62.14 86.509 62.171V56.374C86.509 55.909 87.005 55.32 87.718 55.32C88.4 55.32 89.051 55.816 89.051 56.343V62.171C92.957 62.202 96.832 62.078 99.188 61.799C99.87 61.706 100.49 62.202 100.521 62.822C100.583 63.442 100.056 64.031 99.467 64.124C95.871 64.589 82.138 64.713 77.953 64.124ZM105.987 58.079C105.367 58.234 104.623 57.893 104.437 57.335C104.313 56.808 104.499 56.064 105.15 55.847C109.428 54.297 112.559 51.786 112.559 46.516V43.819C112.559 43.385 113.055 42.796 113.768 42.796C114.45 42.796 115.101 43.292 115.101 43.788V46.733C115.101 52.964 110.792 56.591 105.987 58.079ZM117.054 51.817L123.471 55.816C123.843 56.095 124.246 56.715 123.781 57.397C123.378 58.11 122.479 58.11 121.952 57.769L115.504 53.77C115.07 53.46 114.884 52.716 115.318 52.127C115.752 51.538 116.527 51.507 117.054 51.817ZM103.383 64.124C102.732 64.031 102.236 63.442 102.329 62.822C102.422 62.14 103.011 61.706 103.631 61.799C108.529 62.264 119.782 62.357 124.618 61.799C125.3 61.706 125.92 62.202 125.951 62.822C126.013 63.442 125.486 64.031 124.897 64.124C121.301 64.589 107.568 64.713 103.383 64.124Z" fill="white"/>
  <g clip-path="url(#clip0_547_1450)">
    <path d="M9.42981 13.6797H0V17.324H9.42981V13.6797Z" fill="#E4E7EB"/>
    <path d="M9.42981 26.0834H0V29.7277H9.42981V26.0834Z" fill="#E4E7EB"/>
    <path d="M36.8757 26.0834H27.4459V29.7277H36.8757V26.0834Z" fill="#E4E7EB"/>
    <path d="M27.4459 13.6797H12.382V17.324H27.4459V13.6797Z" fill="#B2FF59"/>
    <path d="M27.4459 26.0834H12.382V29.7277H27.4459V26.0834Z" fill="#B2FF59"/>
    <path d="M13.0741 40.6498L13.0741 13.6797H9.42978L9.42978 40.6498H13.0741Z" fill="#B2FF59"/>
    <path d="M13.0741 13.6797V2.75757L9.42978 2.75757V13.6797H13.0741Z" fill="#E4E7EB"/>
    <path d="M27.4351 40.6498V29.7277H23.7908V40.6498H27.4351Z" fill="#E4E7EB"/>
    <path d="M27.4459 28.3327V13.6797H23.8016V28.3327H27.4459Z" fill="#B2FF59"/>
    <path fill-rule="evenodd" clip-rule="evenodd" d="M48.7744 20.8511H36.6348H25.2535C21.131 20.8511 17.789 17.5093 17.789 13.3868C17.789 9.26423 21.131 5.92229 25.2535 5.92229C25.898 5.92229 26.5235 6.00399 27.1201 6.15758C28.7507 2.52776 32.3976 0 36.6348 0C41.802 0 46.0912 3.75912 46.9168 8.69178C47.5047 8.50771 48.1299 8.40849 48.7785 8.40849C52.2144 8.40849 54.9998 11.1939 54.9998 14.6298C54.9998 18.0658 52.2144 20.8511 48.7785 20.8511C48.7771 20.8511 48.7756 20.8511 48.7744 20.8511Z" fill="white"/>
  </g>
  <defs>
    <clipPath id="clip0_547_1450">
      <rect width="55" height="40.6498" fill="white"/>
    </clipPath>
  </defs>
</svg>
