<svg xmlns="http://www.w3.org/2000/svg" viewBox="0 0 12945 1918">
  <path d="M3727.5 1249.5H3543C3519 1249.5 3492 1222.5 3492 1194C3492 1165.5 3517.5 1138.5 3541.5 1138.5H3723C3897 1138.5 3958.5 1063.5 3958.5 948C3958.5 838.5 3901.5 757.5 3729 757.5H3477C3456 757.5 3457.5 772.5 3456 781.5C3439.5 1051.5 3445.5 1396.5 3453 1614C3453 1630.5 3436.5 1668 3394.5 1668C3343.5 1668 3334.5 1626 3334.5 1612.5C3328.5 1476 3324 834 3342 714C3349.5 669 3385.5 646.5 3421.5 646.5H3730.5C3963 646.5 4074 781.5 4074 948C4074 1116 3963 1249.5 3727.5 1249.5ZM4414.88 936C4594.88 939 4720.88 1014 4723.88 1257C4725.38 1357.5 4722.38 1531.5 4711.88 1602C4704.38 1645.5 4668.38 1668 4632.38 1668H4429.88C4209.38 1668 4083.38 1609.5 4083.38 1438.5C4083.38 1279.5 4182.38 1201.5 4432.88 1201.5H4510.88C4534.88 1201.5 4561.88 1219.5 4561.88 1257C4561.88 1293 4537.88 1314 4512.38 1314H4431.38C4254.38 1314 4200.38 1336.5 4200.38 1437C4200.38 1528.5 4260.38 1557 4423.88 1557H4576.88C4597.88 1557 4596.38 1542 4597.88 1533C4606.88 1384.5 4608.38 1327.5 4608.38 1267.5C4608.38 1071 4521.38 1050 4408.88 1047C4348.88 1045.5 4263.37 1060.5 4225.88 1063.5C4192.88 1065 4170.38 1035 4168.88 1011C4167.38 979.5 4191.38 957 4216.88 951C4279.88 939 4374.38 936 4414.88 936ZM5176.59 936C5356.59 939 5482.59 1014 5485.59 1257C5487.09 1357.5 5484.09 1531.5 5473.59 1602C5466.09 1645.5 5430.09 1668 5394.09 1668H5191.59C4971.09 1668 4845.09 1609.5 4845.09 1438.5C4845.09 1279.5 4944.09 1201.5 5194.59 1201.5H5272.59C5296.59 1201.5 5323.59 1219.5 5323.59 1257C5323.59 1293 5299.59 1314 5274.09 1314H5193.09C5016.09 1314 4962.09 1336.5 4962.09 1437C4962.09 1528.5 5022.09 1557 5185.59 1557H5338.59C5359.59 1557 5358.09 1542 5359.59 1533C5368.59 1384.5 5370.09 1327.5 5370.09 1267.5C5370.09 1071 5283.09 1050 5170.59 1047C5110.59 1045.5 5025.09 1060.5 4987.59 1063.5C4954.59 1065 4932.09 1035 4930.59 1011C4929.09 979.5 4953.09 957 4978.59 951C5041.59 939 5136.09 936 5176.59 936ZM5764.31 1257C5764.31 1342.5 5764.31 1516.5 5767.31 1614C5767.31 1630.5 5747.81 1668 5707.31 1668C5656.31 1668 5647.31 1626 5647.31 1612.5C5645.81 1528.5 5645.81 1341 5645.81 1246.5C5645.81 1051.5 5756.81 949.5 5945.81 949.5H6056.81C6080.81 949.5 6106.31 972 6106.31 1008C6106.31 1041 6082.31 1063.5 6056.81 1063.5H5932.31C5828.81 1063.5 5764.31 1111.5 5764.31 1257ZM6459.8 936C6639.8 939 6765.8 1014 6768.8 1257C6770.3 1357.5 6767.3 1531.5 6756.8 1602C6749.3 1645.5 6713.3 1668 6677.3 1668H6474.8C6254.3 1668 6128.3 1609.5 6128.3 1438.5C6128.3 1279.5 6227.3 1201.5 6477.8 1201.5H6555.8C6579.8 1201.5 6606.8 1219.5 6606.8 1257C6606.8 1293 6582.8 1314 6557.3 1314H6476.3C6299.3 1314 6245.3 1336.5 6245.3 1437C6245.3 1528.5 6305.3 1557 6468.8 1557H6621.8C6642.8 1557 6641.3 1542 6642.8 1533C6651.8 1384.5 6653.3 1327.5 6653.3 1267.5C6653.3 1071 6566.3 1050 6453.8 1047C6393.8 1045.5 6308.3 1060.5 6270.8 1063.5C6237.8 1065 6215.3 1035 6213.8 1011C6212.3 979.5 6236.3 957 6261.8 951C6324.8 939 6419.3 936 6459.8 936ZM7050.52 1614C7050.52 1630.5 7034.02 1668 6992.02 1668C6941.02 1668 6932.02 1626 6932.02 1612.5C6929.02 1419 6927.52 1177.5 6932.02 1002C6932.02 987 6941.02 945 6992.02 945C7034.02 945 7050.52 982.5 7050.52 1000.5C7046.02 1168.5 7044.52 1378.5 7050.52 1614ZM7449.52 1312.5C7449.52 1167 7389.52 1060.5 7217.02 1060.5H7137.52C7113.52 1060.5 7089.52 1039.5 7089.52 1005C7089.52 970.5 7116.52 949.5 7140.52 949.5H7205.02C7473.52 949.5 7568.02 1114.5 7568.02 1309.5C7568.02 1404 7565.02 1528.5 7563.52 1612.5C7563.52 1626 7554.52 1668 7503.52 1668C7460.02 1668 7443.52 1630.5 7443.52 1614C7446.52 1516.5 7449.52 1398 7449.52 1312.5ZM8537.47 1683C8328.97 1675.5 8183.47 1528.5 8192.47 1300.5C8199.97 1066.5 8367.97 936 8573.47 939C8610.97 939 8682.97 943.5 8721.97 949.5C8745.97 955.5 8769.97 979.5 8768.47 1011C8766.97 1035 8741.47 1068 8708.47 1063.5C8673.97 1059 8603.47 1053 8570.47 1053C8438.47 1051.5 8318.47 1126.5 8312.47 1305C8306.47 1477.5 8408.47 1563 8538.97 1569C8612.47 1570.5 8663.47 1560 8721.97 1533C8741.47 1522.5 8787.97 1540.5 8793.97 1575C8801.47 1609.5 8774.47 1632 8757.97 1641C8700.97 1674 8622.97 1684.5 8537.47 1683ZM9226.37 1683C9019.37 1683 8854.37 1540.5 8854.37 1312.5C8854.37 1077 9026.87 937.5 9226.37 937.5C9424.37 937.5 9596.87 1077 9596.87 1312.5C9596.87 1540.5 9431.87 1683 9226.37 1683ZM9226.37 1567.5C9367.37 1567.5 9476.87 1479 9476.87 1311C9476.87 1131 9359.87 1053 9226.37 1053C9092.87 1053 8974.37 1131 8974.37 1311C8974.37 1479 9080.87 1567.5 9226.37 1567.5ZM10234 999C10234 981 10250.5 943.5 10294 943.5C10345 943.5 10354 985.5 10354 1000.5C10357 1192.5 10358.5 1434 10354 1611C10354 1624.5 10345 1666.5 10294 1666.5C10250.5 1666.5 10234 1629 10234 1612.5C10238.5 1444.5 10240 1233 10234 999ZM9835.04 1306.5C9835.04 1452 9896.54 1557 10069 1557H10148.5C10172.5 1557 10196.5 1576.5 10196.5 1615.5C10196.5 1648.5 10169.5 1668 10145.5 1668H10081C9811.04 1668 9718.04 1503 9718.04 1309.5C9718.04 1213.5 9721.04 1083 9722.54 1000.5C9722.54 985.5 9731.54 943.5 9782.54 943.5C9824.54 943.5 9841.04 981 9841.04 999C9838.04 1095 9835.04 1219.5 9835.04 1306.5ZM10636.4 1257C10636.4 1342.5 10636.4 1516.5 10639.4 1614C10639.4 1630.5 10619.9 1668 10579.4 1668C10528.4 1668 10519.4 1626 10519.4 1612.5C10517.9 1528.5 10517.9 1341 10517.9 1246.5C10517.9 1051.5 10628.9 949.5 10817.9 949.5H10928.9C10952.9 949.5 10978.4 972 10978.4 1008C10978.4 1041 10954.4 1063.5 10928.9 1063.5H10804.4C10700.9 1063.5 10636.4 1111.5 10636.4 1257ZM11295.9 1566C11405.4 1566 11511.9 1551 11511.9 1461C11511.9 1396.5 11442.9 1378.5 11304.9 1347C11168.4 1317 11012.4 1281 11012.4 1141.5C11012.4 1002 11144.4 940.5 11310.9 936C11363.4 934.5 11474.4 939 11519.4 946.5C11544.9 951 11570.4 970.5 11567.4 1008C11564.4 1042.5 11538.9 1065 11505.9 1060.5C11460.9 1054.5 11345.4 1047 11309.4 1048.5C11213.4 1051.5 11132.4 1072.5 11132.4 1141.5C11132.4 1204.5 11262.9 1221 11354.4 1243.5C11532.9 1288.5 11631.9 1333.5 11631.9 1468.5C11631.9 1645.5 11421.9 1687.5 11277.9 1680C11193.9 1675.5 11100.9 1663.5 11042.4 1632C11024.4 1621.5 10998.9 1603.5 11006.4 1561.5C11013.9 1519.5 11058.9 1510.5 11079.9 1521C11136.9 1548 11222.4 1566 11295.9 1566ZM11715.2 1311C11715.2 1078.5 11868.2 937.5 12070.7 937.5C12201.2 937.5 12394.7 1023 12402.2 1266C12403.7 1330.5 12354.2 1360.5 12322.7 1360.5H11935.7C11913.2 1360.5 11886.2 1341 11886.2 1308C11886.2 1273.5 11910.2 1249.5 11934.2 1249.5H12283.7C12279.2 1114.5 12181.7 1051.5 12070.7 1051.5C11938.7 1051.5 11836.7 1132.5 11836.7 1312.5C11836.7 1485 11941.7 1561.5 12078.2 1569C12150.2 1573.5 12208.7 1557 12273.2 1522.5C12295.7 1512 12340.7 1530 12346.7 1564.5C12354.2 1599 12328.7 1621.5 12310.7 1632C12253.7 1662 12160.7 1687.5 12073.7 1683C11865.2 1674 11715.2 1527 11715.2 1311Z" fill="white"/>
  <rect y="668.394" width="392.582" height="178.062" fill="#E4E7EB"/>
  <rect y="1274.44" width="533.658" height="178.062" fill="#E4E7EB"/>
  <rect y="1274.44" width="392.582" height="178.062" fill="#E4E7EB"/>
  <rect x="1272.86" y="1274.44" width="392.582" height="178.062" fill="#E4E7EB"/>
  <rect x="536.828" y="668.394" width="736.026" height="178.062" fill="#B2FF59"/>
  <rect x="536.828" y="1274.44" width="736.026" height="178.062" fill="#B2FF59"/>
  <rect x="570.645" y="668.394" width="1249.61" height="178.062" transform="rotate(90 570.645 668.394)" fill="#B2FF59"/>
  <rect x="570.645" y="134.735" width="533.658" height="178.062" transform="rotate(90 570.645 134.735)" fill="#E4E7EB"/>
  <rect x="1272.33" y="1452.5" width="465.498" height="178.062" transform="rotate(90 1272.33 1452.5)" fill="#E4E7EB"/>
  <rect x="1272.86" y="668.394" width="715.948" height="178.062" transform="rotate(90 1272.86 668.394)" fill="#B2FF59"/>
  <path fill-rule="evenodd" clip-rule="evenodd" d="M1165.73 1018.79C964.303 1018.79 801.016 855.505 801.016 654.079C801.016 452.653 964.304 289.365 1165.73 289.365C1197.22 289.365 1227.78 293.356 1256.93 300.861C1336.61 123.507 1514.8 0 1721.83 0C1974.3 0 2183.87 183.671 2224.21 424.683C2252.93 415.689 2283.48 410.841 2315.17 410.841C2483.05 410.841 2619.14 546.936 2619.14 714.817C2619.14 882.699 2483.05 1018.79 2315.17 1018.79C2315.04 1018.79 2314.91 1018.79 2314.78 1018.79H1722.08C1721.99 1018.79 1721.91 1018.79 1721.83 1018.79C1721.74 1018.79 1721.66 1018.79 1721.57 1018.79H1165.73Z" fill="white"/>
</svg>
