<svg xmlns="http://www.w3.org/2000/svg" style="display: none;">
  <symbol id="icon-search" viewBox="0 0 24 24">
    <path d="M10.77 18.3002C9.2807 18.3002 7.82485 17.8586 6.58655 17.0312C5.34825 16.2038 4.38311 15.0278 3.81318 13.6518C3.24325 12.2759 3.09413 10.7619 3.38468 9.30121C3.67523 7.84053 4.39239 6.49881 5.44548 5.44572C6.49857 4.39263 7.84029 3.67547 9.30096 3.38492C10.7616 3.09438 12.2757 3.2435 13.6516 3.81342C15.0275 4.38335 16.2036 5.34849 17.031 6.58679C17.8584 7.8251 18.3 9.28094 18.3 10.7702C18.3 11.7591 18.1052 12.7383 17.7268 13.6518C17.3484 14.5654 16.7937 15.3955 16.0945 16.0948C15.3953 16.794 14.5652 17.3486 13.6516 17.727C12.738 18.1055 11.7588 18.3002 10.77 18.3002ZM10.77 4.75024C9.58331 4.75024 8.42327 5.10213 7.43657 5.76142C6.44988 6.42071 5.68084 7.35778 5.22672 8.45414C4.77259 9.55049 4.65377 10.7569 4.88528 11.9208C5.11679 13.0847 5.68824 14.1538 6.52735 14.9929C7.36647 15.832 8.43556 16.4034 9.59945 16.6349C10.7633 16.8665 11.9697 16.7476 13.0661 16.2935C14.1624 15.8394 15.0995 15.0704 15.7588 14.0837C16.4181 13.097 16.77 11.9369 16.77 10.7502C16.77 9.15894 16.1379 7.63282 15.0126 6.5076C13.8874 5.38238 12.3613 4.75024 10.77 4.75024Z" 
    fill="#9AA5B1"/>
    <path d="M20 20.75C19.9015 20.7504 19.8038 20.7312 19.7128 20.6934C19.6218 20.6557 19.5392 20.6001 19.47 20.53L15.34 16.4C15.2075 16.2578 15.1354 16.0697 15.1388 15.8754C15.1422 15.6811 15.221 15.4958 15.3584 15.3583C15.4958 15.2209 15.6812 15.1422 15.8755 15.1388C16.0698 15.1354 16.2578 15.2075 16.4 15.34L20.53 19.47C20.6704 19.6106 20.7493 19.8012 20.7493 20C20.7493 20.1987 20.6704 20.3893 20.53 20.53C20.4608 20.6001 20.3782 20.6557 20.2872 20.6934C20.1962 20.7312 20.0985 20.7504 20 20.75Z" 
    fill="#9AA5B1"/>
  </symbol>

  <symbol id="icon-user" viewBox="0 0 54 54">
    <path
      d="M54 27C54 41.3594 41.3594 54 27 54C12.6406 54 0 41.3594 0 27C0 12.6406 12.6406 0 27 0C41.3594 0 54 12.6406 54 27Z"
      fill="#7E7E7E"
    />
    <path
      d="M41 46C37.5 48.5 33 50 27 50C21 50 16.5 48.5 13 46C11.5 45 10.5 42.5 11.5 40.5C13.5 36.5 17.5 34 27 34C36.5 34 40.5 36.5 42.5 40.5C43.5 42.5 42.5 45 41 46ZM27 28C29.5 28 31.5 27 33 25.5C34.5 24 35.5 22 35.5 19.5C35.5 17 34.5 15 33 13.5C31.5 12 29.5 11 27 11C24.5 11 22.5 12 21 13.5C19.5 15 18.5 17 18.5 19.5C18.5 22 19.5 24 21 25.5C22.5 27 24.5 28 27 28Z"
      fill="white"
    />
  </symbol>

  <symbol id="icon-map" viewBox="0 0 101 101">
    <path fill-rule="evenodd" clip-rule="evenodd" d="M74.1004 88.375L63.689 32.8671L16.8334 37.1259V74.9083C16.8334 79.6217 16.8334 81.9783 17.7508 83.7795C18.5577 85.3631 19.8452 86.6506 21.4289 87.4576C23.23 88.375 25.5867 88.375 30.3 88.375H74.1004ZM56.8125 63.2512C56.8125 72.3328 47.8067 78.7127 43.8803 81.0651C43.3375 81.3908 42.7164 81.5628 42.0834 81.5628C41.4504 81.5628 40.8292 81.3908 40.2864 81.0651C36.36 78.7127 27.3542 72.3328 27.3542 63.247C27.3542 54.338 34.4915 48.3958 42.0834 48.3958C49.9403 48.3958 56.8125 54.338 56.8125 63.2512Z" 
    fill="#0484FC"/>
    <path d="M17.7508 17.2205C16.8334 19.0217 16.8334 21.3783 16.8334 26.0917V28.6756L92.5413 21.7907C92.4613 19.7371 92.2467 18.3652 91.666 17.2205C90.859 15.6369 89.5715 14.3493 87.9879 13.5424C86.1867 12.625 83.83 12.625 79.1167 12.625H30.3C25.5867 12.625 23.23 12.625 21.4289 13.5424C19.8452 14.3493 18.5577 15.6369 17.7508 17.2205ZM92.5834 30.2411L72.1098 32.1012L82.6559 88.354C85.1473 88.2992 86.7085 88.1099 87.9879 87.4576C89.5715 86.6507 90.859 85.3631 91.666 83.7795C92.5834 81.9783 92.5834 79.6217 92.5834 74.9083V30.2411Z" 
    fill="#0484FC" fill-opacity="0.25"/>
    <path d="M42.0833 67.3333C44.4075 67.3333 46.2917 65.4492 46.2917 63.125C46.2917 60.8008 44.4075 58.9166 42.0833 58.9166C39.7591 58.9166 37.875 60.8008 37.875 63.125C37.875 65.4492 39.7591 67.3333 42.0833 67.3333Z" 
    fill="#0484FC"/>
  </symbol>

  <symbol id="icon-area" viewBox="0 0 6 22">
    <path d="M6 3C6 4.31 5.17 5.42 4 5.83V16.17C5.17 16.58 6 17.69 6 19C6 19.7956 5.68393 20.5587 5.12132 21.1213C4.55871 21.6839 3.79565 22 3 22C2.20435 22 1.44129 21.6839 0.878679 21.1213C0.31607 20.5587 0 19.7956 0 19C-0.00179625 18.379 0.189808 17.7729 0.54821 17.2657C0.906612 16.7586 1.41403 16.3756 2 16.17V5.83C1.41403 5.62439 0.906612 5.24142 0.54821 4.73429C0.189808 4.22715 -0.00179625 3.621 0 3C0 2.20435 0.31607 1.44129 0.878679 0.87868C1.44129 0.31607 2.20435 0 3 0C3.79565 0 4.55871 0.31607 5.12132 0.87868C5.68393 1.44129 6 2.20435 6 3Z" 
    fill="#BEBEBE"/>
  </symbol>

  <symbol id="icon-area2" viewBox="0 0 10 35">
    <path d="M9.875 5.16663C9.875 7.18621 8.59542 8.89746 6.79167 9.52954V25.4704C8.59542 26.1025 9.875 27.8137 9.875 29.8333C9.875 31.0599 9.38773 32.2363 8.52037 33.1037C7.65301 33.971 6.47663 34.4583 5.25 34.4583C4.02337 34.4583 2.84699 33.971 1.97963 33.1037C1.11228 32.2363 0.625 31.0599 0.625 29.8333C0.622231 28.8759 0.917621 27.9414 1.47016 27.1596C2.02269 26.3778 2.80496 25.7874 3.70833 25.4704V9.52954C2.80496 9.21255 2.02269 8.62215 1.47016 7.84032C0.917621 7.05848 0.622231 6.124 0.625 5.16663C0.625 3.94 1.11228 2.76361 1.97963 1.89626C2.84699 1.0289 4.02337 0.541626 5.25 0.541626C6.47663 0.541626 7.65301 1.0289 8.52037 1.89626C9.38773 2.76361 9.875 3.94 9.875 5.16663Z" 
    fill="#CCFF90"/>
  </symbol>

  <symbol id="icon-comment" viewBox="0 0 14 13">
    <path d="M7 12.125C5.81331 12.125 4.65327 11.7951 3.66658 11.177C2.67988 10.5589 1.91085 9.68043 1.45672 8.6526C1.0026 7.62476 0.883775 6.49376 1.11529 5.40262C1.3468 4.31148 1.91824 3.3092 2.75736 2.52253C3.59647 1.73586 4.66557 1.20013 5.82946 0.983085C6.99334 0.766043 8.19974 0.877437 9.2961 1.30318C10.3925 1.72892 11.3295 2.44989 11.9888 3.37492C12.6481 4.29995 13 5.38748 13 6.5C13 7.43 12.76 8.30625 12.3333 9.07938L13 12.125L9.75133 11.5C8.92733 11.8994 7.99133 12.125 7 12.125Z" 
    stroke="#7E7E7E" stroke-linecap="round" stroke-linejoin="round"/>
  </symbol>

  <symbol id="icon-heart-notfilled" viewBox="0 0 23 22">
    <path d="M0 7.23722C0 12.342 4.13434 17.3625 10.6543 21.6764C10.9093 21.8318 11.2566 22 11.4998 22C11.7429 22 12.0902 21.8323 12.3338 21.6764C18.8652 17.3625 23 12.342 23 7.23773C23 2.99591 20.1855 0 16.4331 0C14.2792 0 12.5419 1.0547 11.4998 2.67229C10.4572 1.06697 8.70894 0 6.56642 0C2.81404 0 0 2.9954 0 7.23722ZM1.86384 7.23773C1.86384 4.05061 3.85565 1.92996 6.5427 1.92996C8.71981 1.92996 9.95907 3.3318 10.7116 4.53016C11.0244 5.0092 11.2216 5.14111 11.4993 5.14111C11.777 5.14111 11.9509 4.99744 12.2869 4.53016C13.074 3.35583 14.2901 1.92996 16.4558 1.92996C19.1429 1.92996 21.1347 4.05061 21.1347 7.23824C21.1347 11.6953 16.5833 16.5005 11.731 19.8313C11.6149 19.9151 11.5457 19.9755 11.4993 19.9755C11.4528 19.9755 11.3718 19.9156 11.2562 19.8313C6.41522 16.5 1.86384 11.6953 1.86384 7.23773Z" 
    fill="#333333"/>
  </symbol>

  <symbol id="icon-heart-filled" viewBox="0 0 23 22">
    <path d="M11.5 22C11.1449 21.9995 10.7982 21.8883 10.5049 21.6809C6.15997 18.6244 4.27861 16.5286 3.2409 15.2184C1.02948 12.4254 -0.0292403 9.55797 0.0006139 6.45276C0.0354438 2.89438 2.79032 0 6.14173 0C8.57871 0 10.2666 1.42255 11.2496 2.60734C11.2807 2.6445 11.3192 2.67429 11.3624 2.69471C11.4056 2.71512 11.4525 2.72569 11.5 2.72569C11.5475 2.72569 11.5944 2.71512 11.6376 2.69471C11.6808 2.67429 11.7193 2.6445 11.7504 2.60734C12.7334 1.42141 14.4213 0 16.8583 0C20.2097 0 22.9646 2.89438 22.9994 6.45333C23.0292 9.55911 21.9694 12.4266 19.7591 15.219C18.7214 16.5292 16.84 18.6249 12.4951 21.6815C12.2018 21.8887 11.855 21.9997 11.5 22Z" 
    fill="#FF0000"/>
  </symbol>

    <symbol id="icon-singo" viewBox="0 0 14 12">
      <path d="M12.6059 11.7968H0.784008C0.64698 11.7963 0.51243 11.7602 0.393655 11.6919C0.274879 11.6235 0.17599 11.5254 0.106758 11.4071C0.0372371 11.2887 0.000398505 11.1539 3.21503e-06 11.0165C-0.000392075 10.8791 0.0356701 10.7441 0.104508 10.6253L6.01901 0.390377C6.08712 0.271494 6.18548 0.172755 6.3041 0.104191C6.42272 0.0356263 6.55737 -0.000320412 6.69438 2.15188e-06C6.97301 2.15188e-06 7.23251 0.149627 7.37126 0.390752L13.2696 10.5998C13.3436 10.7182 13.3845 10.8543 13.3881 10.9939C13.3917 11.1335 13.3579 11.2715 13.2902 11.3937C13.2224 11.5158 13.1233 11.6176 13.0029 11.6884C12.8826 11.7593 12.7455 11.7967 12.6059 11.7968ZM6.67451 0.765377H6.66813L0.754758 10.9988L0.784008 11.0471H12.6059C12.6224 11.0471 12.6385 11.031 12.6385 11.0149C12.6359 11.0108 12.6228 10.9789 12.6201 10.9748L6.72138 0.765377H6.67451Z" fill="black"/>
      <path d="M6.33008 4.22925V7.49212C6.33469 7.60192 6.38155 7.70568 6.46086 7.78173C6.54018 7.85779 6.64581 7.90025 6.7557 7.90025C6.86559 7.90025 6.97123 7.85779 7.05055 7.78173C7.12986 7.70568 7.17672 7.60192 7.18133 7.49212V4.22925C7.18123 4.11626 7.1364 4.0079 7.05665 3.92786C6.97689 3.84783 6.86869 3.80262 6.7557 3.80212C6.52208 3.80212 6.33008 3.9945 6.33008 4.22925ZM6.75608 8.4855C6.52208 8.4855 6.33045 8.67525 6.33045 8.91V9.19537C6.33124 9.30791 6.37637 9.4156 6.45605 9.49507C6.53574 9.57454 6.64354 9.61938 6.75608 9.61987C6.99083 9.61987 7.1817 9.4275 7.1817 9.19537V8.91C7.1817 8.67525 6.99045 8.4855 6.75608 8.4855Z" fill="black"/>
    </symbol>

    <symbol id="icon-reply" viewBox="0 0 16 16">
      <path d="M8 14C6.81331 14 5.65327 13.6481 4.66658 12.9888C3.67988 12.3295 2.91085 11.3925 2.45672 10.2961C2.0026 9.19975 1.88378 7.99335 2.11529 6.82946C2.3468 5.66558 2.91824 4.59648 3.75736 3.75736C4.59647 2.91825 5.66557 2.3468 6.82946 2.11529C7.99334 1.88378 9.19974 2.0026 10.2961 2.45673C11.3925 2.91085 12.3295 3.67989 12.9888 4.66658C13.6481 5.65328 14 6.81331 14 8C14 8.992 13.76 9.92667 13.3333 10.7513L14 14L10.7513 13.3333C9.92733 13.7593 8.99133 14 8 14Z" stroke="#333333" stroke-linecap="round" stroke-linejoin="round"/>
    </symbol>

    <symbol id="icon-share" viewBox="0 0 15 14">
      <path d="M9.77107 0.127805L14.3246 4.52959C14.3687 4.57207 14.4038 4.62299 14.4277 4.67933C14.4517 4.73566 14.464 4.79624 14.464 4.85745C14.464 4.91866 14.4517 4.97924 14.4277 5.03557C14.4038 5.0919 14.3687 5.14283 14.3246 5.1853L9.77107 9.58709C9.72945 9.62811 9.68013 9.66049 9.62595 9.68237C9.57176 9.70425 9.51379 9.7152 9.45536 9.71459C9.33459 9.71459 9.21877 9.66662 9.13337 9.58122C9.04797 9.49582 9 9.38 9 9.25923V6.98852C4.93214 7.15245 3.22 9.42923 3.14714 9.52638C3.08918 9.60267 3.00917 9.65931 2.91795 9.68863C2.82673 9.71795 2.72871 9.71854 2.63714 9.6903C2.54581 9.66088 2.46611 9.60336 2.40941 9.52594C2.35272 9.44853 2.32192 9.35519 2.32143 9.25923C2.32143 4.38995 6.3225 2.89638 9 2.74459V0.455662C9.0002 0.366108 9.0268 0.2786 9.07648 0.204086C9.12615 0.129572 9.1967 0.0713607 9.27929 0.0367332C9.36106 0.00146734 9.45146 -0.00870371 9.53902 0.00751142C9.62658 0.0237265 9.70735 0.0655965 9.77107 0.127805ZM9.91071 6.52709V8.17245L13.3532 4.85745L9.91071 1.5303V3.1878C9.90914 3.30808 9.86066 3.42299 9.7756 3.50805C9.69055 3.59311 9.57564 3.64159 9.45536 3.64316C8.86643 3.64316 4.08214 3.77673 3.32929 8.06316C5.07544 6.70309 7.24324 5.99839 9.45536 6.07173C9.57564 6.07331 9.69055 6.12179 9.7756 6.20684C9.86066 6.2919 9.90914 6.40681 9.91071 6.52709ZM12.4747 9.84998C12.5596 9.76489 12.6744 9.71631 12.7946 9.71459C12.9149 9.71616 13.0298 9.76464 13.1149 9.8497C13.1999 9.93476 13.2484 10.0497 13.25 10.1699V10.4735C13.25 11.2384 12.9462 11.9719 12.4053 12.5128C11.8645 13.0536 11.1309 13.3574 10.3661 13.3574H3.38393C2.61906 13.3574 1.88552 13.0536 1.34468 12.5128C0.803842 11.9719 0.5 11.2384 0.5 10.4735V3.49138C0.5 2.72651 0.803842 1.99297 1.34468 1.45213C1.88552 0.911289 2.61906 0.607448 3.38393 0.607448H6.11607C6.23684 0.607448 6.35266 0.655423 6.43806 0.740819C6.52345 0.826215 6.57143 0.942036 6.57143 1.0628C6.57143 1.18357 6.52345 1.29939 6.43806 1.38479C6.35266 1.47019 6.23684 1.51816 6.11607 1.51816H3.38393C2.86109 1.51976 2.36013 1.72817 1.99042 2.09787C1.62072 2.46757 1.41232 2.96854 1.41071 3.49138V10.4735C1.41232 10.9964 1.62072 11.4973 1.99042 11.867C2.36013 12.2367 2.86109 12.4451 3.38393 12.4467H10.3661C10.8889 12.4451 11.3899 12.2367 11.7596 11.867C12.1293 11.4973 12.3377 10.9964 12.3393 10.4735V10.1699C12.341 10.0497 12.3896 9.93493 12.4747 9.84998Z" fill="#333333"/>
    </symbol>

    <symbol id="icon-delete" viewBox="0 0 12 15">
      <path d="M11.5418 1.16667H8.771L7.97933 0.375H4.021L3.22933 1.16667H0.458496V2.75H11.5418M1.25016 13.0417C1.25016 13.4616 1.41698 13.8643 1.71391 14.1613C2.01084 14.4582 2.41357 14.625 2.8335 14.625H9.16683C9.58676 14.625 9.98948 14.4582 10.2864 14.1613C10.5833 13.8643 10.7502 13.4616 10.7502 13.0417V3.54167H1.25016V13.0417Z" 
      fill="#7E7E7E"/>
    </symbol>

    <symbol id="icon-delete2" viewBox="0 0 13 15">
      <path d="M2.66401 14.5C2.27492 14.5 1.94213 14.3615 1.66563 14.0844C1.38913 13.8073 1.25059 13.4751 1.25001 13.0878V2.25004H0.812506C0.688256 2.25004 0.584423 2.20804 0.501006 2.12404C0.417589 2.04004 0.375589 1.93592 0.375006 1.81167C0.374423 1.68742 0.416423 1.58359 0.501006 1.50017C0.585589 1.41675 0.689423 1.37504 0.812506 1.37504H3.87501C3.87501 1.19421 3.94209 1.03671 4.07626 0.902544C4.21042 0.768377 4.36792 0.701294 4.54876 0.701294H8.45126C8.63209 0.701294 8.78959 0.768377 8.92376 0.902544C9.05792 1.03671 9.12501 1.19421 9.12501 1.37504H12.1875C12.3118 1.37504 12.4156 1.41704 12.499 1.50104C12.5824 1.58504 12.6244 1.68917 12.625 1.81342C12.6256 1.93767 12.5836 2.0415 12.499 2.12492C12.4144 2.20834 12.3106 2.25004 12.1875 2.25004H11.75V13.0869C11.75 13.4754 11.6115 13.8079 11.3344 14.0844C11.0573 14.3609 10.7248 14.4995 10.3369 14.5H2.66401ZM10.875 2.25004H2.12501V13.0869C2.12501 13.2438 2.17546 13.3728 2.27638 13.4737C2.3773 13.5746 2.50651 13.625 2.66401 13.625H10.3369C10.4938 13.625 10.6227 13.5746 10.7236 13.4737C10.8245 13.3728 10.875 13.2438 10.875 13.0869V2.25004ZM5.01951 11.875C5.14376 11.875 5.24788 11.833 5.33188 11.749C5.41588 11.665 5.45759 11.5612 5.45701 11.4375V4.43754C5.45701 4.31329 5.41501 4.20946 5.33101 4.12604C5.24701 4.04263 5.14288 4.00063 5.01863 4.00004C4.89438 3.99946 4.79055 4.04146 4.70713 4.12604C4.62371 4.21063 4.58201 4.31446 4.58201 4.43754V11.4375C4.58201 11.5618 4.62401 11.6656 4.70801 11.749C4.79201 11.833 4.89584 11.875 5.01951 11.875ZM7.98138 11.875C8.10563 11.875 8.20946 11.833 8.29288 11.749C8.3763 11.665 8.41801 11.5612 8.41801 11.4375V4.43754C8.41801 4.31329 8.37601 4.20946 8.29201 4.12604C8.20801 4.04204 8.10417 4.00004 7.98051 4.00004C7.85626 4.00004 7.75213 4.04204 7.66813 4.12604C7.58413 4.21004 7.54242 4.31388 7.54301 4.43754V11.4375C7.54301 11.5618 7.58501 11.6656 7.66901 11.749C7.75301 11.8325 7.85713 11.8745 7.98138 11.875Z" fill="black"/>
    </symbol>

    <symbol id="icon-write" viewBox="0 0 24 24">
      <path fill-rule="evenodd" clip-rule="evenodd" d="M3.52087 23.8333C3.52087 23.6179 3.60648 23.4112 3.75885 23.2588C3.91122 23.1064 4.11789 23.0208 4.33337 23.0208H21.6667C21.8822 23.0208 22.0889 23.1064 22.2412 23.2588C22.3936 23.4112 22.4792 23.6179 22.4792 23.8333C22.4792 24.0488 22.3936 24.2555 22.2412 24.4079C22.0889 24.5602 21.8822 24.6458 21.6667 24.6458H4.33337C4.11789 24.6458 3.91122 24.5602 3.75885 24.4079C3.60648 24.2555 3.52087 24.0488 3.52087 23.8333Z" fill="#0484FC"/>
      <path d="M12.4801 16.1731L18.8901 9.763C17.8112 9.31362 16.8316 8.65575 16.0074 7.82709C15.1782 7.00266 14.52 6.02264 14.0704 4.94325L7.65923 11.3533C7.15873 11.8538 6.90848 12.103 6.69398 12.3793C6.43988 12.7043 6.22227 13.0564 6.04506 13.429C5.89448 13.7443 5.78289 14.0801 5.55864 14.7507L4.37998 18.2899C4.32589 18.4518 4.31798 18.6256 4.35715 18.7918C4.39631 18.9579 4.481 19.1099 4.60171 19.2306C4.72242 19.3513 4.87438 19.436 5.04054 19.4752C5.2067 19.5143 5.38048 19.5064 5.54239 19.4523L9.08056 18.2737C9.75223 18.0494 10.0881 17.9378 10.4033 17.7862C10.7774 17.6085 11.1273 17.3926 11.4531 17.1383C11.7293 16.9228 11.9785 16.6725 12.479 16.1731M20.669 7.98417C20.9854 7.66763 21.2365 7.29185 21.4077 6.8783C21.579 6.46475 21.6671 6.02152 21.667 5.57391C21.667 5.12631 21.5788 4.68309 21.4074 4.26958C21.2361 3.85606 20.985 3.48035 20.6684 3.16388C20.3519 2.84741 19.9761 2.59638 19.5626 2.42514C19.149 2.25389 18.7058 2.16578 18.2582 2.16583C17.8106 2.16588 17.3674 2.2541 16.9538 2.42543C16.5403 2.59677 16.1646 2.84788 15.8481 3.16442L15.079 3.93359L15.1126 4.03109C15.3942 4.8425 15.9261 5.90742 16.9261 6.90734C17.7601 7.74628 18.7789 8.37846 19.9009 8.75333L20.669 7.98417Z" fill="#0484FC"/>
    </symbol>

    <symbol id="icon-edit" viewBox="0 0 14 14">
      <path d="M9.56344 0.509033L8.28727 1.78521L11.715 5.21294L12.9912 3.93677C13.6504 3.27759 13.6504 2.20972 12.9912 1.55054L11.9523 0.509033C11.2931 -0.150147 10.2253 -0.150147 9.56608 0.509033H9.56344ZM7.69137 2.3811L1.54518 8.52993C1.27096 8.80415 1.07057 9.14429 0.959827 9.51607L0.0264286 12.688C-0.0394894 12.9122 0.0211551 13.1521 0.184632 13.3156C0.348108 13.4791 0.58805 13.5397 0.809534 13.4764L3.98151 12.543C4.35328 12.4323 4.69342 12.2319 4.96764 11.9577L11.1191 5.80884L7.69137 2.3811Z" fill="#0484FC"/>
    </symbol>

    <symbol id="icon-edit2" viewBox="0 0 15 15">
      <path d="M3.6584 0.211497L3.9194 1.01475C4.00034 1.25906 4.13732 1.48106 4.31938 1.66299C4.50143 1.84491 4.72353 1.98173 4.9679 2.0625L5.7719 2.3235L5.7884 2.328C5.85035 2.34981 5.90401 2.3903 5.94197 2.44391C5.97992 2.49751 6.00031 2.56157 6.00031 2.62725C6.00031 2.69293 5.97992 2.75699 5.94197 2.81059C5.90401 2.86419 5.85035 2.90469 5.7884 2.9265L4.9844 3.1875C4.73989 3.26816 4.51764 3.40493 4.33545 3.58687C4.15326 3.7688 4.01617 3.99085 3.93515 4.23525L3.6749 5.03775C3.65309 5.0997 3.61259 5.15336 3.55899 5.19131C3.50539 5.22927 3.44133 5.24965 3.37565 5.24965C3.30997 5.24965 3.24591 5.22927 3.19231 5.19131C3.13871 5.15336 3.09821 5.0997 3.0764 5.03775L2.8154 4.23525C2.73499 3.99002 2.59817 3.76707 2.41594 3.58432C2.23371 3.40157 2.01115 3.26411 1.76615 3.183L0.962152 2.922C0.900199 2.90019 0.846542 2.85969 0.808585 2.80609C0.770629 2.75249 0.750244 2.68843 0.750244 2.62275C0.750244 2.55707 0.770629 2.49301 0.808585 2.43941C0.846542 2.3858 0.900199 2.34531 0.962152 2.3235L1.76615 2.0625C2.00761 1.97965 2.22656 1.8419 2.40576 1.66009C2.58497 1.47829 2.71954 1.25738 2.7989 1.01475L3.0599 0.212247C3.08155 0.150033 3.12203 0.0961019 3.17572 0.0579373C3.22941 0.0197727 3.29365 -0.000732422 3.35953 -0.000732422C3.4254 -0.000732422 3.48964 0.0197727 3.54333 0.0579373C3.59702 0.0961019 3.6375 0.150033 3.65915 0.212247M7.3379 6.1605L6.7634 5.9745C6.58908 5.91622 6.4307 5.81818 6.30079 5.68814C6.17088 5.55811 6.07301 5.39963 6.0149 5.22525L5.8274 4.65225C5.81187 4.60795 5.78296 4.56956 5.74467 4.54241C5.70638 4.51525 5.6606 4.50067 5.61365 4.50067C5.56671 4.50067 5.52092 4.51525 5.48263 4.54241C5.44434 4.56956 5.41543 4.60795 5.3999 4.65225L5.2139 5.22525C5.15686 5.39851 5.06058 5.55627 4.93257 5.68623C4.80457 5.81618 4.64828 5.91484 4.4759 5.9745L3.90215 6.1605C3.85785 6.17602 3.81947 6.20493 3.79231 6.24323C3.76516 6.28152 3.75057 6.3273 3.75057 6.37425C3.75057 6.42119 3.76516 6.46697 3.79231 6.50527C3.81947 6.54356 3.85785 6.57247 3.90215 6.588L4.4759 6.77475C4.65075 6.83305 4.80958 6.93134 4.93978 7.0618C5.06997 7.19226 5.16794 7.35129 5.2259 7.52625L5.4119 8.09925C5.42743 8.14355 5.45634 8.18193 5.49463 8.20908C5.53292 8.23624 5.57871 8.25083 5.62565 8.25083C5.6726 8.25083 5.71838 8.23624 5.75667 8.20908C5.79496 8.18193 5.82387 8.14355 5.8394 8.09925L6.02615 7.52625C6.08433 7.35178 6.18232 7.19326 6.31237 7.06321C6.44241 6.93317 6.60094 6.83518 6.7754 6.777L7.34915 6.591C7.39345 6.57547 7.43183 6.54656 7.45899 6.50827C7.48614 6.46997 7.50073 6.42419 7.50073 6.37725C7.50073 6.3303 7.48614 6.28452 7.45899 6.24623C7.43183 6.20793 7.39345 6.17902 7.34915 6.1635L7.3379 6.1605ZM4.5119 7.761L4.66715 8.23875L3.18965 9.71625C3.04492 9.86145 2.94451 10.0448 2.90015 10.245L2.3699 12.6315L4.73915 12.105C4.95065 12.0577 5.14415 11.9512 5.29715 11.7982L12.3157 4.77975C12.5841 4.50009 12.7323 4.12633 12.7283 3.73869C12.7243 3.35105 12.5685 2.98042 12.2943 2.70635C12.0201 2.43228 11.6495 2.27662 11.2618 2.27277C10.8742 2.26891 10.5005 2.41718 10.2209 2.68575L7.47365 5.4315L6.9959 5.274C6.93215 5.25049 6.87356 5.21483 6.8234 5.169C6.79669 5.14562 6.77435 5.11768 6.7574 5.0865L9.6899 2.154C10.11 1.7436 10.6749 1.51536 11.2621 1.51878C11.8494 1.5222 12.4116 1.75701 12.8269 2.17226C13.2421 2.58752 13.4769 3.14975 13.4804 3.737C13.4838 4.32426 13.2555 4.88918 12.8452 5.30925L12.3427 5.81175L12.5947 6.0645C12.8759 6.34579 13.0338 6.72725 13.0338 7.125C13.0338 7.52274 12.8759 7.9042 12.5947 8.1855L11.8897 8.8905C11.8192 8.96081 11.7238 9.00028 11.6243 9.00021C11.5247 9.00014 11.4293 8.96054 11.359 8.89012C11.2887 8.81971 11.2492 8.72424 11.2493 8.62473C11.2494 8.52522 11.289 8.42981 11.3594 8.3595L12.0644 7.65525C12.205 7.5146 12.284 7.32387 12.284 7.125C12.284 6.92612 12.205 6.73539 12.0644 6.59475L11.8124 6.34275L5.8274 12.3277C5.57378 12.5825 5.25227 12.759 4.90115 12.8362L1.95665 13.491C1.89509 13.5047 1.83106 13.5027 1.77048 13.4851C1.70991 13.4675 1.65475 13.4349 1.61011 13.3904C1.56547 13.3458 1.53279 13.2907 1.5151 13.2302C1.49741 13.1696 1.49528 13.1056 1.5089 13.044L2.1674 10.0815C2.2424 9.74175 2.4134 9.43125 2.65865 9.18525L4.31765 7.527C4.40718 7.58004 4.47556 7.66246 4.51115 7.76025" fill="black"/>
    </symbol>

    <symbol id="icon-404" viewBox="0 0 343 122">
      <path d="M236.597 104.927L254.737 106.319C255.487 106.32 256.226 106.145 256.895 105.808C257.565 105.471 258.145 104.981 258.591 104.379L263.062 98.3316C263.85 97.2488 264.159 95.8848 263.892 94.577L263.182 90.9727L261.544 89.7957L261.073 85.9988L262.051 85.2352L262.008 85.0145C261.783 83.8613 261.15 82.8348 260.208 82.1316L254.878 77.3926L251.531 71.2051L247.453 70.9801L240.337 68.3926L230.972 78.2926L228.708 83.3691L228.342 84.1848L226.008 88.502C225.769 88.9238 226.036 92.8332 225.952 93.3113C225.952 93.3113 235.725 104.927 236.597 104.927Z" 
      fill="#9B9B9B"/>
      <path d="M250.125 78.208L244.43 93.8736L258.084 97.6705L263.189 90.9627L262.05 85.2393L250.125 78.208Z" 
      fill="#E6E6E6"/>
      <path d="M225.53 89.8662L224.812 95.0834H229.031L230.142 90.6818C230.325 89.8943 230.817 89.2334 231.506 88.8115L237.469 85.2396L233.18 75.874L231.239 77.9975C231.056 78.1943 230.916 78.4193 230.803 78.6725L228.342 84.199L226.008 88.5162C225.769 88.9381 225.614 89.3881 225.53 89.8662Z" 
      fill="#636363"/>
      <path d="M238.186 92.988L244.5 99.302L258.084 97.6708L247.566 92.8895C246.637 92.4677 246.159 91.413 246.455 90.4286L250.125 78.2083L251.531 71.2052C250.35 69.3208 249.802 68.7864 247.777 68.1255C246.427 67.6473 245.259 67.2395 245.259 67.2395C245.259 67.2395 244.5 66.9161 243.684 66.8317C242.658 66.7473 241.997 66.9302 241.125 67.5911L237.469 85.2395V91.2583C237.469 91.9052 237.722 92.5239 238.186 92.988Z" 
      fill="#D3D3D3"/>
      <path d="M224.812 95.083H229.031L244.5 99.3018V106.319L238.523 106.333C236.906 106.333 235.317 105.967 233.869 105.236L231.942 104.28C230.946 103.785 230.039 103.129 229.256 102.339L227.948 101.031C226.808 99.8963 225.951 98.509 225.445 96.9814L224.812 95.083Z" 
      fill="#636363"/>
      <path d="M263.159 96.2222C263.328 97.1504 263.075 98.1066 262.442 98.8238L256.859 105.18C256.283 105.841 255.214 106.319 254.342 106.333H243.5V99.3019L257.084 97.6707L262.175 90.9629L263.159 96.2222ZM245.623 70.2347L244.062 68.0269C243.837 67.7094 243.545 67.4454 243.207 67.2537C242.868 67.062 242.491 66.9473 242.103 66.9178C241.715 66.8883 241.325 66.9446 240.962 67.0828C240.598 67.2211 240.269 67.4378 239.998 67.7176L230.492 77.6176C229.578 78.5738 229.747 80.1347 230.844 80.866L236.469 85.2394L242.98 79.3191C243.753 78.616 244.316 77.716 244.611 76.7035L245.947 72.1332C246.13 71.4863 246.017 70.7832 245.623 70.2347Z" 
      fill="#9B9B9B"/>
      <path d="M143.685 68.7964C144.125 68.797 144.56 68.7001 144.958 68.5127C145.356 68.3252 145.708 68.052 145.988 67.7124C149.275 63.7324 153.961 60.7961 159.182 59.4443C164.447 58.0811 169.919 58.434 174.589 60.438C176.103 61.0875 177.858 60.387 178.508 58.8724C179.157 57.3579 178.457 55.6037 176.942 54.9539C164.896 49.7849 149.943 53.5526 141.387 63.9123C140.337 65.1829 140.517 67.0636 141.787 68.113C142.321 68.5552 142.992 68.7969 143.685 68.7964ZM73.3026 63.787C72.2689 62.5036 72.4715 60.6255 73.7546 59.5918C84.2187 51.1633 99.6241 50.4788 110.385 57.9639C111.738 58.9049 112.071 60.7644 111.13 62.1171C110.189 63.4701 108.329 63.8037 106.977 62.8627C102.805 59.9609 97.516 58.5155 92.0851 58.7921C86.6985 59.0666 81.5178 61.0013 77.4978 64.239C76.9685 64.6667 76.3085 64.8998 75.628 64.8993C74.7561 64.8993 73.8919 64.519 73.3026 63.787Z" 
      fill="#76DFFF"/>
      <path d="M91.8478 81.032L113.746 52.0625L107.902 39.5949C107.256 38.2169 107.849 36.5766 109.227 35.9308C110.605 35.2851 112.245 35.8787 112.891 37.2562L118.456 49.1278L143.055 46.7762L145.534 38.3701C145.676 37.8916 145.944 37.4603 146.311 37.122L154.776 29.3324C155.896 28.302 157.639 28.3742 158.669 29.4939C159.699 30.6136 159.627 32.3566 158.507 33.3869L150.604 40.6602L148.161 48.945L167.994 81.2519C168.79 82.5487 168.384 84.2452 167.087 85.0415C166.779 85.231 166.436 85.3579 166.079 85.4149C165.722 85.4719 165.357 85.4579 165.005 85.3736C164.653 85.2894 164.321 85.1367 164.028 84.9241C163.735 84.7116 163.487 84.4434 163.298 84.1349L145.035 54.3855L130.809 74.9706L133.59 81.4192C133.599 81.4404 133.605 81.4626 133.614 81.484C133.654 81.5836 133.688 81.6853 133.717 81.7888C133.738 81.8674 133.756 81.9464 133.77 82.0256C133.774 82.0485 133.78 82.0711 133.783 82.0943C133.815 82.3017 133.823 82.512 133.806 82.7212C133.804 82.7481 133.8 82.775 133.797 82.8019C133.79 82.8779 133.778 82.9533 133.764 83.0281C133.758 83.0603 133.751 83.0924 133.744 83.1243C133.727 83.1998 133.706 83.2743 133.682 83.3478C133.674 83.3731 133.668 83.3986 133.659 83.4236C133.625 83.5207 133.586 83.6156 133.541 83.7084C133.532 83.726 133.522 83.7427 133.513 83.7601C133.474 83.8371 133.432 83.9123 133.385 83.9855C133.378 83.9964 133.373 84.0081 133.366 84.0191C133.357 84.0327 133.346 84.0446 133.337 84.0582C133.291 84.1263 133.242 84.1924 133.189 84.2564C133.174 84.275 133.159 84.2943 133.143 84.3124C133.005 84.4726 132.849 84.6162 132.677 84.7404C132.656 84.7556 132.634 84.7692 132.612 84.7837C132.55 84.8268 132.485 84.8674 132.417 84.9057C132.384 84.924 132.351 84.9417 132.318 84.9589C132.288 84.9741 132.26 84.9913 132.23 85.0056C132.201 85.0191 132.171 85.0284 132.142 85.0411C132.099 85.0593 132.057 85.0765 132.014 85.0925C131.951 85.1159 131.888 85.1357 131.824 85.1543C131.786 85.1652 131.749 85.1767 131.711 85.186C131.635 85.2045 131.559 85.2184 131.482 85.2303C131.453 85.2348 131.425 85.2408 131.396 85.2443C131.285 85.2582 131.173 85.2667 131.062 85.2667L131.046 85.2662L94.0586 85.449H94.0448C93.0023 85.449 92.0482 84.8602 91.5812 83.9273C91.3514 83.4678 91.2547 82.9533 91.3018 82.4417C91.3489 81.9301 91.538 81.4418 91.8478 81.032ZM139.537 52.6482L120.939 54.426L127.959 69.4024L139.537 52.6482ZM126.736 79.7767L116.39 57.7028L99.6029 79.9106L126.736 79.7767Z" 
      fill="#00B1FF"/>
      <path d="M165.646 57.4979C179.561 57.4979 190.842 68.7786 190.842 82.6938C190.842 96.6089 179.561 107.89 165.646 107.89C151.731 107.89 140.45 96.6091 140.45 82.6938C140.45 68.7784 151.731 57.4979 165.646 57.4979ZM165.646 64.46C155.592 64.46 147.412 72.6397 147.412 82.694C147.412 92.7483 155.592 100.928 165.646 100.928C175.7 100.928 183.88 92.7483 183.88 82.694C183.88 72.6397 175.7 64.46 165.646 64.46ZM94.0455 57.4979C107.961 57.4979 119.241 68.7786 119.241 82.6938C119.241 96.6089 107.961 107.89 94.0455 107.89C80.1301 107.89 68.8497 96.6091 68.8497 82.6938C68.8497 68.7784 80.1301 57.4979 94.0455 57.4979ZM94.0455 64.46C83.9912 64.46 75.8115 72.6397 75.8115 82.694C75.8115 92.7483 83.9912 100.928 94.0455 100.928C104.1 100.928 112.28 92.7483 112.28 82.694C112.28 72.6397 104.1 64.46 94.0455 64.46ZM147.298 35.3906C159.357 35.3906 163.215 30.1813 163.616 29.5875C163.918 29.1386 164.093 28.6159 164.121 28.0753C164.149 27.5348 164.029 26.9968 163.775 26.5189C163.521 26.0411 163.141 25.6414 162.677 25.3626C162.213 25.0839 161.682 24.9366 161.141 24.9365H152.712C151.064 24.9365 149.729 26.2723 149.729 27.9203C149.729 28.4209 149.852 28.8925 150.069 29.3066C149.225 29.3809 148.303 29.4234 147.298 29.4234C145.65 29.4234 144.315 30.7592 144.315 32.4071C144.315 34.0551 145.65 35.3906 147.298 35.3906ZM162.58 82.6938C162.58 84.3867 163.953 85.7592 165.646 85.7592C167.339 85.7592 168.711 84.3867 168.711 82.6938C168.711 81.0008 167.339 79.6283 165.646 79.6283C163.953 79.6283 162.58 81.0008 162.58 82.6938ZM91.001 82.6938C91.001 84.3753 92.3642 85.7383 94.0455 85.7383C95.7271 85.7383 97.09 84.3753 97.09 82.6938C97.09 81.0122 95.7268 79.6492 94.0455 79.6492C92.364 79.6492 91.001 81.0124 91.001 82.6938ZM121.142 35.1385L105.463 33.8585C103.081 33.664 100.993 35.4371 100.799 37.8182C100.604 40.1996 102.378 42.2877 104.759 42.4821C104.939 42.4967 105.118 42.5004 105.294 42.4931L105.878 42.4645L121.459 41.713C123.267 41.6257 124.662 40.0895 124.575 38.2817C124.495 36.6173 123.186 35.3032 121.568 35.1728L121.142 35.1385Z" 
      fill="#464A4C"/>
      <path d="M131.061 88.3123C127.856 88.3123 125.259 85.7148 125.259 82.5107C125.259 79.3065 127.856 76.709 131.061 76.709C134.265 76.709 136.862 79.3065 136.862 82.5107C136.862 85.7148 134.265 88.3123 131.061 88.3123Z" fill="#597B91"/>
      <line y1="109" x2="343" y2="109" stroke="#464A4C" stroke-width="6"/>
    </symbol>

    <symbol id="icon-offline" viewBox="0 0 109 90">
      <path d="M87.6938 88.1127L46.7313 46.9148C44.2986 47.4641 41.9649 48.2096 39.73 49.1512C37.4951 50.0929 35.3952 51.2307 33.4302 52.5648C31.7823 53.6634 29.9586 54.2331 27.9591 54.2739C25.9597 54.3147 24.2913 53.6273 22.9542 52.2116C21.5417 50.7991 20.8951 49.0916 21.0143 47.089C21.1336 45.0864 21.9764 43.4981 23.5427 42.3242C25.3476 40.9901 27.2513 39.7738 29.2539 38.6752C31.2565 37.5766 33.3156 36.5564 35.4313 35.6148L24.8375 25.021C22.7972 26.1196 20.8166 27.2779 18.8956 28.4958C16.9746 29.7137 15.1101 31.0273 13.3021 32.4366C11.7326 33.6922 9.94819 34.32 7.94872 34.32C5.94925 34.32 4.28093 33.6137 2.94376 32.2012C1.53126 30.7887 0.864246 29.1016 0.942719 27.1398C1.02119 25.178 1.84515 23.5693 3.41459 22.3137C5.14098 20.9012 6.90661 19.5484 8.71147 18.2552C10.5163 16.9619 12.4389 15.7644 14.4792 14.6627L7.88751 8.07103C7.02432 7.20783 6.59272 6.10922 6.59272 4.77519C6.59272 3.44117 7.02432 2.34256 7.88751 1.47936C8.7507 0.616168 9.84932 0.18457 11.1833 0.18457C12.5174 0.18457 13.616 0.616168 14.4792 1.47936L94.4031 81.4033C95.3448 82.345 95.8156 83.464 95.8156 84.7604C95.8156 86.0567 95.3448 87.1742 94.4031 88.1127C93.4615 88.9759 92.344 89.4279 91.0508 89.4687C89.7576 89.5095 88.6386 89.0575 87.6938 88.1127ZM54.5 83.8752C51.2042 83.8752 48.4184 82.7185 46.1427 80.4052C43.867 78.0918 42.7292 75.3249 42.7292 72.1044C42.7292 68.8085 43.867 66.0228 46.1427 63.7471C48.4184 61.4714 51.2042 60.3335 54.5 60.3335C57.7958 60.3335 60.5816 61.4714 62.8573 63.7471C65.133 66.0228 66.2708 68.8085 66.2708 72.1044C66.2708 75.3217 65.133 78.0886 62.8573 80.4052C60.5816 82.7216 57.7958 83.8783 54.5 83.8752ZM86.6344 51.5054C85.3788 52.761 83.9083 53.3699 82.2227 53.3322C80.5371 53.2946 79.065 52.6464 77.8063 51.3877L76.6292 50.2106L75.4521 49.0335L64.1521 37.7335C63.132 36.7134 62.9358 35.654 63.5636 34.5554C64.1913 33.4568 65.2899 33.1037 66.8594 33.496C70.3906 34.3592 73.7445 35.5755 76.9211 37.145C80.0976 38.7144 83.0608 40.5585 85.8104 42.6773C87.2229 43.7759 88.0281 45.2088 88.2258 46.976C88.4236 48.7432 87.8931 50.253 86.6344 51.5054ZM106.056 32.2012C104.722 33.6137 103.074 34.3388 101.113 34.3765C99.1507 34.4142 97.3851 33.8068 95.8156 32.5544C90.1656 27.9245 83.8298 24.3352 76.8081 21.7864C69.7864 19.2376 62.3504 17.9617 54.5 17.9585C52.8521 17.9585 51.2638 18.0182 49.7352 18.1374C48.2065 18.2567 46.6559 18.4325 45.0833 18.6648C43.1215 18.9787 41.3559 18.5675 39.7865 17.4312C38.217 16.2949 37.2754 14.7443 36.9615 12.7794C36.6476 10.8144 37.0792 9.04879 38.2563 7.48249C39.4333 5.91618 41.0028 4.97452 42.9646 4.65749C44.8479 4.3436 46.7517 4.12858 48.6758 4.01245C50.5999 3.89631 52.5413 3.83667 54.5 3.83353C64.309 3.83353 73.5499 5.46261 82.2227 8.72078C90.8954 11.9789 98.683 16.4707 105.585 22.196C107.155 23.5301 107.979 25.178 108.057 27.1398C108.136 29.1016 107.469 30.7887 106.056 32.2012Z" 
      fill="#0484FC"/>
    </symbol>

    <symbol id="icon-back" viewBox="0 0 19 18">
      <path d="M0.678589 12.2144H12.8929C14.3326 12.2144 15.7134 11.6726 16.7315 10.7081C17.7495 9.74364 18.3214 8.43554 18.3214 7.07157C18.3214 5.7076 17.7495 4.39949 16.7315 3.43502C15.7134 2.47055 14.3326 1.92871 12.8929 1.92871H8.82145" 
      stroke="#0484FC" stroke-linecap="round" stroke-linejoin="round"/>
      <path d="M4.75002 8.35742L0.678589 12.2146L4.75002 16.0717" 
      stroke="#0484FC" stroke-linecap="round" stroke-linejoin="round"/>
    </symbol>

    <symbol id="icon-more" viewBox="0 0 28 29">
      <path d="M12.6001 21.85C12.6001 21.3858 12.7845 20.9407 13.1127 20.6125C13.4408 20.2843 13.886 20.1 14.3501 20.1C14.8142 20.1 15.2593 20.2843 15.5875 20.6125C15.9157 20.9407 16.1001 21.3858 16.1001 21.85C16.1001 22.3141 15.9157 22.7592 15.5875 23.0874C15.2593 23.4156 14.8142 23.6 14.3501 23.6C13.886 23.6 13.4408 23.4156 13.1127 23.0874C12.7845 22.7592 12.6001 22.3141 12.6001 21.85ZM12.6001 14.85C12.6001 14.3858 12.7845 13.9407 13.1127 13.6125C13.4408 13.2843 13.886 13.1 14.3501 13.1C14.8142 13.1 15.2593 13.2843 15.5875 13.6125C15.9157 13.9407 16.1001 14.3858 16.1001 14.85C16.1001 15.3141 15.9157 15.7592 15.5875 16.0874C15.2593 16.4156 14.8142 16.6 14.3501 16.6C13.886 16.6 13.4408 16.4156 13.1127 16.0874C12.7845 15.7592 12.6001 15.3141 12.6001 14.85ZM12.6001 7.84998C12.6001 7.38585 12.7845 6.94073 13.1127 6.61254C13.4408 6.28435 13.886 6.09998 14.3501 6.09998C14.8142 6.09998 15.2593 6.28435 15.5875 6.61254C15.9157 6.94073 16.1001 7.38585 16.1001 7.84998C16.1001 8.3141 15.9157 8.75922 15.5875 9.08741C15.2593 9.4156 14.8142 9.59998 14.3501 9.59998C13.886 9.59998 13.4408 9.4156 13.1127 9.08741C12.7845 8.75922 12.6001 8.3141 12.6001 7.84998Z" fill="#333333"/>
    </symbol>

    <symbol id="icon-flag-0" viewBox="0 0 12 17">
      <path d="M10.1956 4.23652L1.10317 0.65394C0.828167 0.545606 0.690667 0.49144 0.595333 0.57269C0.5 0.65394 0.5 0.825106 0.5 1.16852V9.08336L10.1956 5.26352C10.7346 5.05119 11.0041 4.94502 11.0041 4.75002C11.0041 4.55502 10.7346 4.44886 10.1956 4.23652Z" fill="#FF5252"/>
      <path d="M0.5 9.08336V1.16852C0.5 0.825106 0.5 0.65394 0.595333 0.57269C0.690667 0.49144 0.828167 0.545606 1.10317 0.65394L10.1956 4.23652C10.7346 4.44886 11.0041 4.55502 11.0041 4.75002C11.0041 4.94502 10.7346 5.05119 10.1956 5.26352L0.5 9.08336ZM0.5 9.08336V15.5834" stroke="#333333" stroke-linecap="round"/>
    </symbol>

    <symbol id="icon-flag-1" viewBox="0 0 12 17">
      <path d="M10.1956 4.23652L1.10317 0.65394C0.828167 0.545606 0.690667 0.49144 0.595333 0.57269C0.5 0.65394 0.5 0.825106 0.5 1.16852V9.08336L10.1956 5.26352C10.7346 5.05119 11.0041 4.94502 11.0041 4.75002C11.0041 4.55502 10.7346 4.44886 10.1956 4.23652Z" fill="#FFAD6F"/>
      <path d="M0.5 9.08336V1.16852C0.5 0.825106 0.5 0.65394 0.595333 0.57269C0.690667 0.49144 0.828167 0.545606 1.10317 0.65394L10.1956 4.23652C10.7346 4.44886 11.0041 4.55502 11.0041 4.75002C11.0041 4.94502 10.7346 5.05119 10.1956 5.26352L0.5 9.08336ZM0.5 9.08336V15.5834" stroke="#333333" stroke-linecap="round"/>
    </symbol>

    <symbol id="icon-flag-2" viewBox="0 0 12 17">
      <path d="M0.5 9.08336V1.16852C0.5 0.825106 0.5 0.65394 0.595333 0.57269C0.690667 0.49144 0.828167 0.545606 1.10317 0.65394L10.1956 4.23652C10.7346 4.44886 11.0041 4.55502 11.0041 4.75002C11.0041 4.94502 10.7346 5.05119 10.1956 5.26352L0.5 9.08336ZM0.5 9.08336V15.5834Z" fill="#FFF260"/>
      <path d="M0.5 9.08336V1.16852C0.5 0.825106 0.5 0.65394 0.595333 0.57269C0.690667 0.49144 0.828167 0.545606 1.10317 0.65394L10.1956 4.23652C10.7346 4.44886 11.0041 4.55502 11.0041 4.75002C11.0041 4.94502 10.7346 5.05119 10.1956 5.26352L0.5 9.08336ZM0.5 9.08336V15.5834" stroke="#333333" stroke-linecap="round"/>
    </symbol>

    <symbol id="icon-flag-3" viewBox="0 0 12 17">
      <path d="M10.6956 4.70295L1.60317 1.12037C1.32817 1.01204 1.19067 0.95787 1.09533 1.03912C1 1.12037 1 1.29154 1 1.63495V9.54979L10.6956 5.72995C11.2346 5.51762 11.5041 5.41145 11.5041 5.21645C11.5041 5.02145 11.2346 4.91529 10.6956 4.70295Z" fill="#B2FF59"/>
      <path d="M1 9.54979V1.63495C1 1.29154 1 1.12037 1.09533 1.03912C1.19067 0.95787 1.32817 1.01204 1.60317 1.12037L10.6956 4.70295C11.2346 4.91529 11.5041 5.02145 11.5041 5.21645C11.5041 5.41145 11.2346 5.51762 10.6956 5.72995L1 9.54979ZM1 9.54979V16.0498V9.54979Z" fill="#B2FF59"/>
      <path d="M1 9.54979V1.63495C1 1.29154 1 1.12037 1.09533 1.03912C1.19067 0.95787 1.32817 1.01204 1.60317 1.12037L10.6956 4.70295C11.2346 4.91529 11.5041 5.02145 11.5041 5.21645C11.5041 5.41145 11.2346 5.51762 10.6956 5.72995L1 9.54979ZM1 9.54979V16.0498" stroke="#333333" stroke-linecap="round"/>
    </symbol>

    <symbol id="icon-flag-4" viewBox="0 0 12 17">
      <path d="M10.1956 4.23652L1.10317 0.65394C0.828167 0.545606 0.690667 0.49144 0.595333 0.57269C0.5 0.65394 0.5 0.825106 0.5 1.16852V9.08336L10.1956 5.26352C10.7346 5.05119 11.0041 4.94502 11.0041 4.75002C11.0041 4.55502 10.7346 4.44886 10.1956 4.23652Z" fill="#B3F0FF"/>
      <path d="M0.5 9.08336V1.16852C0.5 0.825106 0.5 0.65394 0.595333 0.57269C0.690667 0.49144 0.828167 0.545606 1.10317 0.65394L10.1956 4.23652C10.7346 4.44886 11.0041 4.55502 11.0041 4.75002C11.0041 4.94502 10.7346 5.05119 10.1956 5.26352L0.5 9.08336ZM0.5 9.08336V15.5834" stroke="#333333" stroke-linecap="round"/>
    </symbol>

    <symbol id="icon-flag-5" viewBox="0 0 12 17">
      <path d="M10.1956 4.23652L1.10317 0.65394C0.828167 0.545606 0.690667 0.49144 0.595333 0.57269C0.5 0.65394 0.5 0.825106 0.5 1.16852V9.08336L10.1956 5.26352C10.7346 5.05119 11.0041 4.94502 11.0041 4.75002C11.0041 4.55502 10.7346 4.44886 10.1956 4.23652Z" fill="#0484FC"/>
      <path d="M0.5 9.08336V1.16852C0.5 0.825106 0.5 0.65394 0.595333 0.57269C0.690667 0.49144 0.828167 0.545606 1.10317 0.65394L10.1956 4.23652C10.7346 4.44886 11.0041 4.55502 11.0041 4.75002C11.0041 4.94502 10.7346 5.05119 10.1956 5.26352L0.5 9.08336ZM0.5 9.08336V15.5834" stroke="#333333" stroke-linecap="round"/> 
    </symbol>

    <symbol id="icon-flag-6" viewBox="0 0 12 17">
      <path d="M10.1956 4.23652L1.10317 0.65394C0.828167 0.545606 0.690667 0.49144 0.595333 0.57269C0.5 0.65394 0.5 0.825106 0.5 1.16852V9.08336L10.1956 5.26352C10.7346 5.05119 11.0041 4.94502 11.0041 4.75002C11.0041 4.55502 10.7346 4.44886 10.1956 4.23652Z" fill="#C869FF"/>
      <path d="M0.5 9.08336V1.16852C0.5 0.825106 0.5 0.65394 0.595333 0.57269C0.690667 0.49144 0.828167 0.545606 1.10317 0.65394L10.1956 4.23652C10.7346 4.44886 11.0041 4.55502 11.0041 4.75002C11.0041 4.94502 10.7346 5.05119 10.1956 5.26352L0.5 9.08336ZM0.5 9.08336V15.5834" stroke="#333333" stroke-linecap="round"/>
    </symbol>


</svg>


