<svg width="7600" height="1918" viewBox="0 0 7600 1918" fill="none" xmlns="http://www.w3.org/2000/svg">
<path d="M3727.5 1249.5H3543C3519 1249.5 3492 1222.5 3492 1194C3492 1165.5 3517.5 1138.5 3541.5 1138.5H3723C3897 1138.5 3958.5 1063.5 3958.5 948C3958.5 838.5 3901.5 757.5 3729 757.5H3477C3456 757.5 3457.5 772.5 3456 781.5C3439.5 1051.5 3445.5 1396.5 3453 1614C3453 1630.5 3436.5 1668 3394.5 1668C3343.5 1668 3334.5 1626 3334.5 1612.5C3328.5 1476 3324 834 3342 714C3349.5 669 3385.5 646.5 3421.5 646.5H3730.5C3963 646.5 4074 781.5 4074 948C4074 1116 3963 1249.5 3727.5 1249.5ZM4414.88 936C4594.88 939 4720.88 1014 4723.88 1257C4725.38 1357.5 4722.38 1531.5 4711.88 1602C4704.38 1645.5 4668.38 1668 4632.38 1668H4429.88C4209.38 1668 4083.38 1609.5 4083.38 1438.5C4083.38 1279.5 4182.38 1201.5 4432.88 1201.5H4510.88C4534.88 1201.5 4561.88 1219.5 4561.88 1257C4561.88 1293 4537.88 1314 4512.38 1314H4431.38C4254.38 1314 4200.38 1336.5 4200.38 1437C4200.38 1528.5 4260.38 1557 4423.88 1557H4576.88C4597.88 1557 4596.38 1542 4597.88 1533C4606.88 1384.5 4608.38 1327.5 4608.38 1267.5C4608.38 1071 4521.38 1050 4408.88 1047C4348.88 1045.5 4263.37 1060.5 4225.88 1063.5C4192.88 1065 4170.38 1035 4168.88 1011C4167.38 979.5 4191.38 957 4216.88 951C4279.88 939 4374.38 936 4414.88 936ZM5176.59 936C5356.59 939 5482.59 1014 5485.59 1257C5487.09 1357.5 5484.09 1531.5 5473.59 1602C5466.09 1645.5 5430.09 1668 5394.09 1668H5191.59C4971.09 1668 4845.09 1609.5 4845.09 1438.5C4845.09 1279.5 4944.09 1201.5 5194.59 1201.5H5272.59C5296.59 1201.5 5323.59 1219.5 5323.59 1257C5323.59 1293 5299.59 1314 5274.09 1314H5193.09C5016.09 1314 4962.09 1336.5 4962.09 1437C4962.09 1528.5 5022.09 1557 5185.59 1557H5338.59C5359.59 1557 5358.09 1542 5359.59 1533C5368.59 1384.5 5370.09 1327.5 5370.09 1267.5C5370.09 1071 5283.09 1050 5170.59 1047C5110.59 1045.5 5025.09 1060.5 4987.59 1063.5C4954.59 1065 4932.09 1035 4930.59 1011C4929.09 979.5 4953.09 957 4978.59 951C5041.59 939 5136.09 936 5176.59 936ZM5764.31 1257C5764.31 1342.5 5764.31 1516.5 5767.31 1614C5767.31 1630.5 5747.81 1668 5707.31 1668C5656.31 1668 5647.31 1626 5647.31 1612.5C5645.81 1528.5 5645.81 1341 5645.81 1246.5C5645.81 1051.5 5756.81 949.5 5945.81 949.5H6056.81C6080.81 949.5 6106.31 972 6106.31 1008C6106.31 1041 6082.31 1063.5 6056.81 1063.5H5932.31C5828.81 1063.5 5764.31 1111.5 5764.31 1257ZM6459.8 936C6639.8 939 6765.8 1014 6768.8 1257C6770.3 1357.5 6767.3 1531.5 6756.8 1602C6749.3 1645.5 6713.3 1668 6677.3 1668H6474.8C6254.3 1668 6128.3 1609.5 6128.3 1438.5C6128.3 1279.5 6227.3 1201.5 6477.8 1201.5H6555.8C6579.8 1201.5 6606.8 1219.5 6606.8 1257C6606.8 1293 6582.8 1314 6557.3 1314H6476.3C6299.3 1314 6245.3 1336.5 6245.3 1437C6245.3 1528.5 6305.3 1557 6468.8 1557H6621.8C6642.8 1557 6641.3 1542 6642.8 1533C6651.8 1384.5 6653.3 1327.5 6653.3 1267.5C6653.3 1071 6566.3 1050 6453.8 1047C6393.8 1045.5 6308.3 1060.5 6270.8 1063.5C6237.8 1065 6215.3 1035 6213.8 1011C6212.3 979.5 6236.3 957 6261.8 951C6324.8 939 6419.3 936 6459.8 936ZM7050.52 1614C7050.52 1630.5 7034.02 1668 6992.02 1668C6941.02 1668 6932.02 1626 6932.02 1612.5C6929.02 1419 6927.52 1177.5 6932.02 1002C6932.02 987 6941.02 945 6992.02 945C7034.02 945 7050.52 982.5 7050.52 1000.5C7046.02 1168.5 7044.52 1378.5 7050.52 1614ZM7449.52 1312.5C7449.52 1167 7389.52 1060.5 7217.02 1060.5H7137.52C7113.52 1060.5 7089.52 1039.5 7089.52 1005C7089.52 970.5 7116.52 949.5 7140.52 949.5H7205.02C7473.52 949.5 7568.02 1114.5 7568.02 1309.5C7568.02 1404 7565.02 1528.5 7563.52 1612.5C7563.52 1626 7554.52 1668 7503.52 1668C7460.02 1668 7443.52 1630.5 7443.52 1614C7446.52 1516.5 7449.52 1398 7449.52 1312.5Z" fill="white"/>
<rect y="668.394" width="392.582" height="178.062" fill="#E4E7EB"/>
<rect y="1274.44" width="533.658" height="178.062" fill="#E4E7EB"/>
<rect y="1274.44" width="392.582" height="178.062" fill="#E4E7EB"/>
<rect x="1272.86" y="1274.44" width="392.582" height="178.062" fill="#E4E7EB"/>
<rect x="536.828" y="668.394" width="736.026" height="178.062" fill="#B2FF59"/>
<rect x="536.828" y="1274.44" width="736.026" height="178.062" fill="#B2FF59"/>
<rect x="570.645" y="668.394" width="1249.61" height="178.062" transform="rotate(90 570.645 668.394)" fill="#B2FF59"/>
<rect x="570.645" y="134.735" width="533.658" height="178.062" transform="rotate(90 570.645 134.735)" fill="#E4E7EB"/>
<rect x="1272.33" y="1452.5" width="465.498" height="178.062" transform="rotate(90 1272.33 1452.5)" fill="#E4E7EB"/>
<rect x="1272.86" y="668.394" width="715.948" height="178.062" transform="rotate(90 1272.86 668.394)" fill="#B2FF59"/>
<path fill-rule="evenodd" clip-rule="evenodd" d="M1165.73 1018.79C964.303 1018.79 801.016 855.505 801.016 654.079C801.016 452.653 964.304 289.365 1165.73 289.365C1197.22 289.365 1227.78 293.356 1256.93 300.861C1336.61 123.507 1514.8 0 1721.83 0C1974.3 0 2183.87 183.671 2224.21 424.683C2252.93 415.689 2283.48 410.841 2315.17 410.841C2483.05 410.841 2619.14 546.936 2619.14 714.817C2619.14 882.699 2483.05 1018.79 2315.17 1018.79C2315.04 1018.79 2314.91 1018.79 2314.78 1018.79H1722.08C1721.99 1018.79 1721.91 1018.79 1721.83 1018.79C1721.74 1018.79 1721.66 1018.79 1721.57 1018.79H1165.73Z" fill="white"/>
</svg>
