<svg width="10778" height="1918" viewBox="0 0 10778 1918" fill="none" xmlns="http://www.w3.org/2000/svg">
<path d="M3663 1611C3549 1612.5 3394.5 1593 3307.5 1549.5C3288 1540.5 3273 1512 3282 1482C3292.5 1452 3328.5 1437 3351 1446C3384 1458 3414 1467 3444 1474.5C3432 1272 3432 982.5 3444 760.5H3355.5C3333 760.5 3306 733.5 3306 706.5C3306 679.5 3330 651 3354 651H3969C3991.5 651 4020 675 4020 706.5C4020 733.5 3996 760.5 3970.5 760.5H3561C3546 975 3546 1293 3562.5 1494C3592.5 1497 3625.5 1498.5 3663 1498.5C3700.5 1498.5 3733.5 1497 3763.5 1494C3775.5 1302 3772.5 1063.5 3763.5 904.5C3762 885 3771 850.5 3813 844.5C3849 838.5 3880.5 862.5 3882 889.5C3892.5 1047 3892.5 1284 3882 1474.5C3912 1467 3942 1458 3975 1446C3997.5 1437 4033.5 1452 4042.5 1482C4053 1512 4038 1540.5 4018.5 1549.5C3910.5 1596 3799.5 1611 3663 1611ZM4459.5 1122H4315.5C4314 1354.5 4306.5 1587 4299 1671C4294.5 1701 4261.5 1722 4231.5 1719C4200 1717.5 4176 1692 4177.5 1660.5C4197 1431 4200 852 4177.5 616.5C4173 585 4198.5 562.5 4230 558C4261.5 555 4294.5 573 4299 606C4309.5 685.5 4315.5 841.5 4315.5 1011H4458C4480.5 1011 4509 1035 4509 1066.5C4509 1093.5 4485 1122 4459.5 1122ZM5267.77 1113C5267.77 1416 5134.27 1611 4918.27 1611C4697.77 1611 4568.77 1410 4568.77 1113C4568.77 817.5 4696.27 615 4918.27 615C5150.77 615 5267.77 835.5 5267.77 1113ZM5144.77 1116C5144.77 867 5068.27 729 4916.77 729C4774.27 729 4691.77 859.5 4691.77 1116C4691.77 1354.5 4766.77 1497 4916.77 1497C5069.77 1497 5144.77 1354.5 5144.77 1116ZM5719.27 1122H5575.27C5573.77 1354.5 5566.27 1587 5558.77 1671C5554.27 1701 5521.27 1722 5491.27 1719C5459.77 1717.5 5435.77 1692 5437.27 1660.5C5456.77 1431 5459.77 852 5437.27 616.5C5432.77 585 5458.27 562.5 5489.77 558C5521.27 555 5554.27 573 5558.77 606C5569.27 685.5 5575.27 841.5 5575.27 1011H5717.77C5740.27 1011 5768.77 1035 5768.77 1066.5C5768.77 1093.5 5744.77 1122 5719.27 1122ZM5879.53 1159.5C5867.53 1101 5869.03 958.5 5882.53 906C5890.03 885 5909.53 852 5941.03 852H6376.03C6380.53 831 6385.03 756 6379.03 711C6377.53 700.5 6376.03 685.5 6355.03 685.5H5945.53C5923.03 685.5 5897.53 657 5897.53 630C5897.53 603 5921.53 576 5947.03 576H6413.53C6452.53 576 6484.03 616.5 6491.53 657C6502.03 729 6499.03 855 6487.03 903C6479.53 930 6454.03 961.5 6407.53 961.5H5992.03C5986.03 982.5 5986.03 1065 5992.03 1110C5992.03 1119 5995.03 1129.5 6007.03 1137C6052.03 1161 6145.03 1171.5 6235.03 1171.5C6331.03 1171.5 6433.03 1149 6470.53 1131C6493.03 1120.5 6538.03 1135.5 6547.03 1170C6554.53 1201.5 6532.03 1227 6511.03 1236C6443.53 1269 6323.53 1285.5 6227.53 1285.5C6121.03 1285.5 6014.53 1267.5 5957.53 1242C5923.03 1225.5 5888.53 1203 5879.53 1159.5ZM6863.53 606C6871.03 672 6875.53 777 6875.53 891H6998.53C7021.03 891 7049.53 915 7049.53 946.5C7049.53 973.5 7025.53 1002 7000.03 1002H6877.03C6875.53 1144.5 6871.03 1284 6863.53 1360.5C6859.03 1390.5 6826.03 1411.5 6796.03 1408.5C6764.53 1407 6740.53 1381.5 6742.03 1350C6758.53 1171.5 6757.03 811.5 6742.03 616.5C6740.53 585 6763.03 562.5 6794.53 558C6826.03 555 6859.03 573 6863.53 606ZM6875.53 1717.5C6767.53 1764 6589.03 1777.5 6452.53 1779C6317.53 1779 6121.03 1767 6043.03 1735.5C6007.03 1720.5 5974.03 1696.5 5965.03 1653C5951.53 1593 5953.03 1480.5 5962.03 1399.5C5963.53 1378.5 5986.03 1351.5 6023.53 1351.5C6059.53 1351.5 6082.03 1381.5 6080.53 1404C6073.03 1462.5 6068.53 1561.5 6080.53 1620C6082.03 1626 6085.03 1629 6092.53 1632C6140.53 1651.5 6337.03 1668 6464.53 1668C6590.53 1668 6730.03 1648.5 6832.03 1615.5C6853.03 1606.5 6890.53 1617 6899.53 1648.5C6910.03 1678.5 6895.03 1708.5 6875.53 1717.5Z" fill="white"/>
<rect y="668.394" width="392.582" height="178.062" fill="#E4E7EB"/>
<rect y="1274.44" width="533.658" height="178.062" fill="#E4E7EB"/>
<rect y="1274.44" width="392.582" height="178.062" fill="#E4E7EB"/>
<rect x="1272.86" y="1274.44" width="392.582" height="178.062" fill="#E4E7EB"/>
<rect x="536.828" y="668.394" width="736.026" height="178.062" fill="#B2FF59"/>
<rect x="536.828" y="1274.44" width="736.026" height="178.062" fill="#B2FF59"/>
<rect x="570.645" y="668.394" width="1249.61" height="178.062" transform="rotate(90 570.645 668.394)" fill="#B2FF59"/>
<rect x="570.645" y="134.735" width="533.658" height="178.062" transform="rotate(90 570.645 134.735)" fill="#E4E7EB"/>
<rect x="1272.33" y="1452.5" width="465.498" height="178.062" transform="rotate(90 1272.33 1452.5)" fill="#E4E7EB"/>
<rect x="1272.86" y="668.394" width="715.948" height="178.062" transform="rotate(90 1272.86 668.394)" fill="#B2FF59"/>
<path fill-rule="evenodd" clip-rule="evenodd" d="M1165.73 1018.79C964.303 1018.79 801.016 855.505 801.016 654.079C801.016 452.653 964.304 289.365 1165.73 289.365C1197.22 289.365 1227.78 293.356 1256.93 300.861C1336.61 123.507 1514.8 0 1721.83 0C1974.3 0 2183.87 183.671 2224.21 424.683C2252.93 415.689 2283.48 410.841 2315.17 410.841C2483.05 410.841 2619.14 546.936 2619.14 714.817C2619.14 882.699 2483.05 1018.79 2315.17 1018.79C2315.04 1018.79 2314.91 1018.79 2314.78 1018.79H1722.08C1721.99 1018.79 1721.91 1018.79 1721.83 1018.79C1721.74 1018.79 1721.66 1018.79 1721.57 1018.79H1165.73Z" fill="white"/>
</svg>
