<svg width="8139" height="1510" viewBox="0 0 8139 1510" fill="none" xmlns="http://www.w3.org/2000/svg">
<path d="M545.7 953.7H336.6C309.4 953.7 278.8 923.1 278.8 890.8C278.8 858.5 307.7 827.9 334.9 827.9H540.6C737.8 827.9 807.5 742.9 807.5 612C807.5 487.9 742.9 396.1 547.4 396.1H261.8C238 396.1 239.7 413.1 238 423.3C219.3 729.3 226.1 1120.3 234.6 1366.8C234.6 1385.5 215.9 1428 168.3 1428C110.5 1428 100.3 1380.4 100.3 1365.1C93.5 1210.4 88.4 482.8 108.8 346.8C117.3 295.8 158.1 270.3 198.9 270.3H549.1C812.6 270.3 938.4 423.3 938.4 612C938.4 802.4 812.6 953.7 545.7 953.7ZM1324.73 598.4C1528.73 601.8 1671.53 686.8 1674.93 962.2C1676.63 1076.1 1673.23 1273.3 1661.33 1353.2C1652.83 1402.5 1612.03 1428 1571.23 1428H1341.73C1091.83 1428 949.025 1361.7 949.025 1167.9C949.025 987.7 1061.23 899.3 1345.13 899.3H1433.53C1460.73 899.3 1491.33 919.7 1491.33 962.2C1491.33 1003 1464.13 1026.8 1435.23 1026.8H1343.43C1142.83 1026.8 1081.63 1052.3 1081.63 1166.2C1081.63 1269.9 1149.63 1302.2 1334.93 1302.2H1508.33C1532.13 1302.2 1530.43 1285.2 1532.13 1275C1542.33 1106.7 1544.03 1042.1 1544.03 974.1C1544.03 751.4 1445.43 727.6 1317.93 724.2C1249.93 722.5 1153.02 739.5 1110.53 742.9C1073.13 744.6 1047.63 710.6 1045.93 683.4C1044.23 647.7 1071.43 622.2 1100.33 615.4C1171.73 601.8 1278.83 598.4 1324.73 598.4ZM2854.09 962.2C2854.09 1059.1 2854.09 1256.3 2857.49 1366.8C2857.49 1385.5 2835.39 1428 2789.49 1428C2731.69 1428 2721.49 1380.4 2721.49 1365.1C2719.79 1269.9 2719.79 1057.4 2719.79 950.3C2719.79 729.3 2845.59 613.7 3059.79 613.7H3185.59C3212.79 613.7 3241.69 639.2 3241.69 680C3241.69 717.4 3214.49 742.9 3185.59 742.9H3044.49C2927.19 742.9 2854.09 797.3 2854.09 962.2ZM3642.3 598.4C3846.3 601.8 3989.1 686.8 3992.5 962.2C3994.2 1076.1 3990.8 1273.3 3978.9 1353.2C3970.4 1402.5 3929.6 1428 3888.8 1428H3659.3C3409.4 1428 3266.6 1361.7 3266.6 1167.9C3266.6 987.7 3378.8 899.3 3662.7 899.3H3751.1C3778.3 899.3 3808.9 919.7 3808.9 962.2C3808.9 1003 3781.7 1026.8 3752.8 1026.8H3661C3460.4 1026.8 3399.2 1052.3 3399.2 1166.2C3399.2 1269.9 3467.2 1302.2 3652.5 1302.2H3825.9C3849.7 1302.2 3848 1285.2 3849.7 1275C3859.9 1106.7 3861.6 1042.1 3861.6 974.1C3861.6 751.4 3763 727.6 3635.5 724.2C3567.5 722.5 3470.6 739.5 3428.1 742.9C3390.7 744.6 3365.2 710.6 3363.5 683.4C3361.8 647.7 3389 622.2 3417.9 615.4C3489.3 601.8 3596.4 598.4 3642.3 598.4ZM4311.78 1366.8C4311.78 1385.5 4293.08 1428 4245.48 1428C4187.68 1428 4177.48 1380.4 4177.48 1365.1C4174.08 1145.8 4172.38 872.1 4177.48 673.2C4177.48 656.2 4187.68 608.6 4245.48 608.6C4293.08 608.6 4311.78 651.1 4311.78 671.5C4306.68 861.9 4304.98 1099.9 4311.78 1366.8ZM4763.98 1025.1C4763.98 860.2 4695.98 739.5 4500.48 739.5H4410.38C4383.18 739.5 4355.98 715.7 4355.98 676.6C4355.98 637.5 4386.58 613.7 4413.78 613.7H4486.88C4791.18 613.7 4898.28 800.7 4898.28 1021.7C4898.28 1128.8 4894.88 1269.9 4893.18 1365.1C4893.18 1380.4 4882.98 1428 4825.18 1428C4775.88 1428 4757.18 1385.5 4757.18 1366.8C4760.58 1256.3 4763.98 1122 4763.98 1025.1Z" fill="white"/>
<path d="M2188.01 598.4C2392.01 601.8 2534.81 686.8 2538.21 962.2C2539.91 1076.1 2536.51 1273.3 2524.61 1353.2C2516.11 1402.5 2475.31 1428 2434.51 1428H2205.01C1955.11 1428 1812.31 1361.7 1812.31 1167.9C1812.31 987.7 1924.51 899.3 2208.41 899.3H2296.81C2324.01 899.3 2354.61 919.7 2354.61 962.2C2354.61 1003 2327.41 1026.8 2298.51 1026.8H2206.71C2006.11 1026.8 1944.91 1052.3 1944.91 1166.2C1944.91 1269.9 2012.91 1302.2 2198.21 1302.2H2371.61C2395.41 1302.2 2393.71 1285.2 2395.41 1275C2405.61 1106.7 2407.31 1042.1 2407.31 974.1C2407.31 751.4 2308.71 727.6 2181.21 724.2C2113.21 722.5 2016.31 739.5 1973.81 742.9C1936.41 744.6 1910.91 710.6 1909.21 683.4C1907.51 647.7 1934.71 622.2 1963.61 615.4C2035.01 601.8 2142.11 598.4 2188.01 598.4Z" fill="#B2FF59"/>
<rect x="5325" y="414.364" width="243.378" height="110.388" fill="#E4E7EB"/>
<rect x="5325" y="790.077" width="330.836" height="110.388" fill="#E4E7EB"/>
<rect x="5325" y="790.077" width="243.378" height="110.388" fill="#E4E7EB"/>
<rect x="6114.09" y="790.077" width="243.378" height="110.388" fill="#E4E7EB"/>
<rect x="5657.8" y="414.364" width="456.292" height="110.388" fill="#B2FF59"/>
<rect x="5657.8" y="790.077" width="456.292" height="110.388" fill="#B2FF59"/>
<rect x="5678.77" y="414.364" width="774.681" height="110.388" transform="rotate(90 5678.77 414.364)" fill="#B2FF59"/>
<rect x="5678.77" y="83.5283" width="330.836" height="110.388" transform="rotate(90 5678.77 83.5283)" fill="#E4E7EB"/>
<rect x="6113.77" y="900.465" width="288.581" height="110.388" transform="rotate(90 6113.77 900.465)" fill="#E4E7EB"/>
<rect x="6114.09" y="414.364" width="443.845" height="110.388" transform="rotate(90 6114.09 414.364)" fill="#B2FF59"/>
<path fill-rule="evenodd" clip-rule="evenodd" d="M6047.68 631.591C6047.68 631.591 6047.68 631.591 6047.68 631.591C5922.81 631.591 5821.58 530.362 5821.58 405.49C5821.58 280.618 5922.81 179.389 6047.68 179.389C6067.21 179.389 6086.15 181.863 6104.22 186.515C6153.62 76.5668 6264.08 0 6392.43 0C6548.95 0 6678.87 113.865 6703.88 263.278C6721.68 257.702 6740.62 254.696 6760.27 254.696C6864.34 254.696 6948.71 339.067 6948.71 443.143C6948.71 547.22 6864.34 631.591 6760.27 631.591C6760.27 631.591 6760.27 631.591 6760.27 631.591V631.591H6047.68V631.591Z" fill="white"/>
</svg>
