<svg width="5815" height="1736" viewBox="0 0 5815 1736" fill="none" xmlns="http://www.w3.org/2000/svg">
<path d="M417 1391C303 1392.5 148.5 1373 61.5 1329.5C42 1320.5 27 1292 36 1262C46.5 1232 82.5 1217 105 1226C138 1238 168 1247 198 1254.5C186 1052 186 762.5 198 540.5H109.5C87 540.5 60 513.5 60 486.5C60 459.5 84 431 108 431H723C745.5 431 774 455 774 486.5C774 513.5 750 540.5 724.5 540.5H315C300 755 300 1073 316.5 1274C346.5 1277 379.5 1278.5 417 1278.5C454.5 1278.5 487.5 1277 517.5 1274C529.5 1082 526.5 843.5 517.5 684.5C516 665 525 630.5 567 624.5C603 618.5 634.5 642.5 636 669.5C646.5 827 646.5 1064 636 1254.5C666 1247 696 1238 729 1226C751.5 1217 787.5 1232 796.5 1262C807 1292 792 1320.5 772.5 1329.5C664.5 1376 553.5 1391 417 1391ZM1213.5 902H1069.5C1068 1134.5 1060.5 1367 1053 1451C1048.5 1481 1015.5 1502 985.5 1499C954 1497.5 930 1472 931.5 1440.5C951 1211 954 632 931.5 396.5C927 365 952.5 342.5 984 338C1015.5 335 1048.5 353 1053 386C1063.5 465.5 1069.5 621.5 1069.5 791H1212C1234.5 791 1263 815 1263 846.5C1263 873.5 1239 902 1213.5 902ZM2021.77 893C2021.77 1196 1888.27 1391 1672.27 1391C1451.77 1391 1322.77 1190 1322.77 893C1322.77 597.5 1450.27 395 1672.27 395C1904.77 395 2021.77 615.5 2021.77 893ZM1898.77 896C1898.77 647 1822.27 509 1670.77 509C1528.27 509 1445.77 639.5 1445.77 896C1445.77 1134.5 1520.77 1277 1670.77 1277C1823.77 1277 1898.77 1134.5 1898.77 896ZM2473.27 902H2329.27C2327.77 1134.5 2320.27 1367 2312.77 1451C2308.27 1481 2275.27 1502 2245.27 1499C2213.77 1497.5 2189.77 1472 2191.27 1440.5C2210.77 1211 2213.77 632 2191.27 396.5C2186.77 365 2212.27 342.5 2243.77 338C2275.27 335 2308.27 353 2312.77 386C2323.27 465.5 2329.27 621.5 2329.27 791H2471.77C2494.27 791 2522.77 815 2522.77 846.5C2522.77 873.5 2498.77 902 2473.27 902ZM2633.53 939.5C2621.53 881 2623.03 738.5 2636.53 686C2644.03 665 2663.53 632 2695.03 632H3130.03C3134.53 611 3139.03 536 3133.03 491C3131.53 480.5 3130.03 465.5 3109.03 465.5H2699.53C2677.03 465.5 2651.53 437 2651.53 410C2651.53 383 2675.53 356 2701.03 356H3167.53C3206.53 356 3238.03 396.5 3245.53 437C3256.03 509 3253.03 635 3241.03 683C3233.53 710 3208.03 741.5 3161.53 741.5H2746.03C2740.03 762.5 2740.03 845 2746.03 890C2746.03 899 2749.03 909.5 2761.03 917C2806.03 941 2899.03 951.5 2989.03 951.5C3085.03 951.5 3187.03 929 3224.53 911C3247.03 900.5 3292.03 915.5 3301.03 950C3308.53 981.5 3286.03 1007 3265.03 1016C3197.53 1049 3077.53 1065.5 2981.53 1065.5C2875.03 1065.5 2768.53 1047.5 2711.53 1022C2677.03 1005.5 2642.53 983 2633.53 939.5ZM3617.53 386C3625.03 452 3629.53 557 3629.53 671H3752.53C3775.03 671 3803.53 695 3803.53 726.5C3803.53 753.5 3779.53 782 3754.03 782H3631.03C3629.53 924.5 3625.03 1064 3617.53 1140.5C3613.03 1170.5 3580.03 1191.5 3550.03 1188.5C3518.53 1187 3494.53 1161.5 3496.03 1130C3512.53 951.5 3511.03 591.5 3496.03 396.5C3494.53 365 3517.03 342.5 3548.53 338C3580.03 335 3613.03 353 3617.53 386ZM3629.53 1497.5C3521.53 1544 3343.03 1557.5 3206.53 1559C3071.53 1559 2875.03 1547 2797.03 1515.5C2761.03 1500.5 2728.03 1476.5 2719.03 1433C2705.53 1373 2707.03 1260.5 2716.03 1179.5C2717.53 1158.5 2740.03 1131.5 2777.53 1131.5C2813.53 1131.5 2836.03 1161.5 2834.53 1184C2827.03 1242.5 2822.53 1341.5 2834.53 1400C2836.03 1406 2839.03 1409 2846.53 1412C2894.53 1431.5 3091.03 1448 3218.53 1448C3344.53 1448 3484.03 1428.5 3586.03 1395.5C3607.03 1386.5 3644.53 1397 3653.53 1428.5C3664.03 1458.5 3649.03 1488.5 3629.53 1497.5Z" fill="white"/>
<rect x="4191" y="414.364" width="243.378" height="110.388" fill="#E4E7EB"/>
<rect x="4191" y="790.077" width="330.836" height="110.388" fill="#E4E7EB"/>
<rect x="4191" y="790.077" width="243.378" height="110.388" fill="#E4E7EB"/>
<rect x="4980.09" y="790.077" width="243.378" height="110.388" fill="#E4E7EB"/>
<rect x="4523.8" y="414.364" width="456.292" height="110.388" fill="#B2FF59"/>
<rect x="4523.8" y="790.077" width="456.292" height="110.388" fill="#B2FF59"/>
<rect x="4544.77" y="414.364" width="774.681" height="110.388" transform="rotate(90 4544.77 414.364)" fill="#B2FF59"/>
<rect x="4544.77" y="83.5278" width="330.836" height="110.388" transform="rotate(90 4544.77 83.5278)" fill="#E4E7EB"/>
<rect x="4979.77" y="900.464" width="288.581" height="110.388" transform="rotate(90 4979.77 900.464)" fill="#E4E7EB"/>
<rect x="4980.09" y="414.364" width="443.845" height="110.388" transform="rotate(90 4980.09 414.364)" fill="#B2FF59"/>
<path fill-rule="evenodd" clip-rule="evenodd" d="M5626.27 631.591C5626.27 631.591 5626.27 631.591 5626.27 631.591C5730.34 631.591 5814.71 547.22 5814.71 443.144C5814.71 339.067 5730.34 254.697 5626.27 254.697C5606.62 254.697 5587.68 257.702 5569.88 263.279C5544.87 113.866 5414.95 0 5258.43 0C5130.08 0 5019.62 76.5668 4970.22 186.515C4952.15 181.863 4933.21 179.389 4913.68 179.389C4788.81 179.389 4687.58 280.618 4687.58 405.49C4687.58 530.362 4788.81 631.591 4913.68 631.591C4913.68 631.591 4913.68 631.591 4913.68 631.591V631.591H5626.27Z" fill="white"/>
</svg>
